<svg width="199" height="220" viewBox="0 0 199 220" fill="none" xmlns="http://www.w3.org/2000/svg">
<path fill-rule="evenodd" clip-rule="evenodd" d="M35.0022 110.984C33.1621 110.741 31.1663 109.737 30.2879 109.192C30.1427 109.113 29.9671 109.083 29.797 109.109C29.627 109.136 29.4752 109.216 29.3726 109.335C29.27 109.453 29.2243 109.6 29.2449 109.745C29.2655 109.891 29.3507 110.025 29.4833 110.119C29.6189 110.208 31.6354 111.452 33.9295 111.969L35.1937 117.213C34.6928 117.061 34.1813 116.932 33.6614 116.828C31.6671 116.428 29.5951 116.393 27.584 116.728C25.6132 117.062 23.745 117.737 22.0947 118.708C22.1636 118.241 22.2421 117.707 22.3244 117.145L22.5519 115.594C22.6706 114.787 22.7861 113.998 22.8817 113.328C22.9105 113.132 22.9378 112.946 22.9631 112.773L22.9638 112.768L22.964 112.766C22.9973 112.539 23.0273 112.334 23.0531 112.16C23.7785 112.066 24.4644 111.806 25.035 111.404C25.7647 110.89 26.2632 110.178 26.4463 109.388L26.8915 107.495C26.9223 107.366 26.8997 107.232 26.8277 107.115C26.7556 106.998 26.6384 106.906 26.4958 106.854C26.1756 106.72 25.8977 106.523 25.685 106.279C25.4722 106.036 25.3308 105.753 25.2724 105.454C25.1621 105.057 25.1592 104.645 25.2637 104.247C25.3682 103.849 25.5775 103.477 25.8758 103.158C25.968 103.054 26.0997 102.981 26.2485 102.95C26.4645 102.985 26.6586 103.084 26.7958 103.23C27.1352 103.541 27.4317 103.884 27.6796 104.252C27.6805 104.254 27.6815 104.256 27.6825 104.258C27.684 104.261 27.6855 104.263 27.6871 104.266C27.6957 104.309 27.7099 104.35 27.7296 104.391C27.781 104.495 27.8674 104.584 27.9781 104.647C28.0888 104.711 28.2189 104.745 28.3523 104.745C28.533 104.745 28.7062 104.683 28.8337 104.574L30.3703 103.247C30.4376 103.194 30.4914 103.13 30.5287 103.059C30.5659 102.987 30.5857 102.91 30.5869 102.832C30.588 102.754 30.5706 102.677 30.5355 102.605C30.5085 102.549 30.4713 102.497 30.4256 102.452C29.4498 100.905 28.6707 99.2746 28.1016 97.5877C28.0407 97.4198 28.0588 97.2384 28.1523 97.0816C28.2458 96.9249 28.4074 96.8051 28.6029 96.7476L29.5031 96.5572L30.4363 96.4928C31.8216 96.4196 33.2003 96.2746 34.5648 96.0587C35.1488 95.9562 35.6736 95.8283 36.1408 95.674C36.7659 96.545 36.8124 97.6864 36.8467 98.6266C36.8506 98.7126 36.8565 98.797 36.8623 98.8788C36.8712 99.0048 36.8796 99.1251 36.8796 99.2371C36.9384 100.068 37.3253 100.857 37.9777 101.477L39.8606 103.256C39.5671 103.446 39.0329 103.541 38.2481 103.558L38.2811 104.709C38.3681 104.707 38.4742 104.705 38.5941 104.7C39.0033 106.256 39.3689 109.481 37.493 110.62C36.8276 111.024 35.9732 111.101 35.0777 110.993L35.0724 110.971L35.0022 110.984Z" fill="#F0CEC2"/>
<path d="M82.1326 148.359C79.854 150.278 77.4864 152.126 75.0561 153.884C73.9976 154.64 72.9952 155.329 71.996 155.996L71.8608 156.085C71.6894 156.197 71.5146 156.315 71.3365 156.424C70.4308 157.016 69.535 157.571 68.649 158.088C77.9612 170.46 75.1089 175.408 72.9523 177.158C75.0693 176.763 77.3479 176.248 79.8771 175.592C90.7589 171.081 102.538 168.09 114.656 165.175C125.076 162.669 136.449 160.236 150.454 157.508C151.993 157.211 153.532 156.921 155.07 156.637C158.282 156.038 161.603 155.416 164.831 154.705L164.871 154.834V154.814L164.841 154.694L164.96 154.674C165.81 153.341 166.233 151.841 166.187 150.326C166.14 148.81 165.624 147.331 164.693 146.038C164.218 146.074 163.74 146.097 163.265 146.097H144.571C144.241 146.097 111.174 145.738 82.1326 148.359Z" fill="#FFD140"/>
<path d="M147.011 164.083C147.339 164.046 147.67 164.024 148.001 164.019C151.298 163.795 154.611 163.608 157.939 163.459C160.211 163.358 162.579 163.277 164.979 163.218H165.016C165.016 163.218 165.174 163.218 165.438 163.218C165.969 161.781 165.965 159.507 164.633 155.937C161.55 156.603 158.411 157.194 155.367 157.763C153.834 158.043 152.301 158.337 150.77 158.634C136.792 161.356 125.439 163.786 115.042 166.284C108.015 167.964 101.107 169.692 94.4291 171.714C95.1578 171.538 95.8899 171.37 96.6153 171.21C98.3993 170.821 100.193 170.451 101.994 170.09C102.079 170.07 102.165 170.059 102.247 170.042C116.974 167.117 131.937 165.125 147.011 164.083Z" fill="#FFD140"/>
<path d="M70.8518 138.76C68.9953 144.136 76.4081 148.46 78.6405 149.619C80.8136 147.886 82.9273 146.088 84.9421 144.237C85.1993 144.002 85.8984 143.176 86.5711 142.378C87.1646 141.672 87.6494 141.101 88.0319 140.675C87.8703 140.591 87.7021 140.507 87.5735 140.426L88.3287 139.471C89.4267 140.098 90.4094 140.443 91.0986 140.443V141.594C90.4587 141.574 89.8298 141.447 89.2487 141.218C88.9981 141.499 88.6881 141.851 88.3715 142.224C90.6072 143.364 91.946 143.722 94.0466 142.826C94.2213 142.75 94.3763 142.669 94.561 142.591C94.6771 142.51 94.7691 142.407 94.8293 142.29C94.8895 142.173 94.9162 142.046 94.9072 141.919C94.8215 140.852 92.6748 139.435 91.9394 139.02L92.6781 138.057C93.0078 138.247 95.9756 139.925 96.246 141.697C96.831 141.352 97.3914 140.978 97.9244 140.577C97.9332 140.539 97.9387 140.501 97.9409 140.462C98.0234 137.861 94.927 137.158 94.7951 137.127L95.1248 136.007C96.4208 136.287 98.7092 137.343 99.2006 139.502C99.4974 139.222 99.7875 138.942 100.065 138.662C100.314 138.387 100.486 138.068 100.568 137.728C100.651 137.389 100.641 137.037 100.539 136.702C100.456 136.338 100.279 135.995 100.021 135.697C99.7623 135.398 99.4293 135.152 99.0456 134.977V134.977C97.7826 134.416 96.6945 134.136 95.8371 134.114L95.8569 132.963C98.2509 132.994 101.631 134.587 105.898 137.704C106.109 137.857 106.356 137.969 106.623 138.032C107.028 138.127 107.459 138.109 107.85 137.978C108.242 137.848 108.572 137.613 108.793 137.309C109.021 136.99 109.118 136.616 109.067 136.245C109.017 135.875 108.823 135.529 108.516 135.262C104.82 132.064 97.2781 126.903 88.3122 128.261C82.5778 129.149 78.4262 132.369 74.0042 136.15C73.015 137.015 71.9532 137.892 70.8518 138.76Z" fill="#F0CEC2"/>
<path d="M72.9424 120.689C73.0873 120.48 73.2194 120.264 73.3381 120.042C72.9637 120.107 72.5824 120.137 72.2004 120.135C72.0685 120.135 71.9366 120.135 71.8113 120.135H71.7322H71.6695H71.6234C71.4606 120.137 71.3044 120.189 71.1848 120.283C71.0638 120.379 70.9897 120.51 70.9771 120.65C70.9624 120.791 71.0107 120.931 71.1123 121.042C71.2126 121.151 71.3571 121.225 71.5179 121.249C71.5785 121.262 71.6419 121.262 71.7025 121.249C72.1787 121.188 72.616 120.99 72.9424 120.689Z" fill="#F0CEC2"/>
<path d="M74.1593 117.13C73.7488 117.201 73.3315 117.238 72.9128 117.242V117.279H70.7628C70.5285 117.279 70.3037 117.358 70.1363 117.497C70.011 117.599 69.9216 117.729 69.8784 117.872C69.8351 118.015 69.8395 118.166 69.8912 118.307C69.9429 118.448 70.0398 118.574 70.171 118.67C70.3022 118.767 70.4626 118.831 70.6342 118.855C73.292 119.219 73.846 118.735 73.9911 118.295V118.278C74.0797 117.899 74.1359 117.516 74.1593 117.13V117.13Z" fill="#F0CEC2"/>
<path d="M73.5326 114.587C73.2478 114.337 72.8774 114.17 72.4741 114.108C72.4174 114.105 72.3611 114.098 72.3059 114.086C72.2268 114.086 72.1411 114.086 72.0553 114.086C71.3266 114.086 70.4066 114.324 70.2384 114.926C70.2149 115.024 70.2175 115.125 70.2461 115.222C70.2746 115.319 70.3283 115.409 70.4033 115.486C70.6841 115.794 71.0964 115.995 71.5508 116.046C71.5904 116.046 71.8245 116.074 72.1542 116.094C72.8178 116.147 73.487 116.102 74.1328 115.962C74.1328 115.831 74.0998 115.699 74.08 115.562V115.531C74.0199 115.175 73.8282 114.845 73.5326 114.587V114.587Z" fill="#F0CEC2"/>
<path d="M51.0502 130.549C53.5694 133.805 55.8629 137.182 57.9189 140.664C65.2427 138.88 68.7117 130.401 70.2912 124.193C70.1216 124.227 69.9479 124.245 69.7735 124.246H64.4414C63.8954 124.245 63.369 124.073 62.9632 123.763C62.5573 123.453 62.3004 123.027 62.2419 122.566L61.4802 116.965L62.0969 116.864C62.4431 116.808 62.6475 116.769 62.6937 116.755L62.8454 116.721C63.5049 116.567 64.0853 116.441 64.5403 116.1C64.7942 115.918 65.1635 115.573 65.1042 115.173V115.131C65.0967 115.093 65.0846 115.057 65.0679 115.022C65.0688 115.011 65.0688 115.001 65.0679 114.991C64.9352 114.732 64.7384 114.501 64.4909 114.313C64.241 114.127 63.946 113.991 63.6269 113.913C63.0504 113.762 62.4356 113.752 61.8528 113.885C61.281 113.981 60.7552 114.218 60.3412 114.567C59.9271 114.916 59.6432 115.36 59.5248 115.845C59.2775 117.161 60.1579 118.491 61.0087 119.779C61.1604 120.009 61.312 120.236 61.4505 120.457C61.7296 120.899 61.8832 121.391 61.8993 121.893C61.9153 122.394 61.7933 122.892 61.5429 123.347C60.5974 125.171 59.1516 126.777 57.3262 128.03C55.5008 129.283 53.3489 130.147 51.0502 130.549V130.549Z" fill="#F0CEC2"/>
<path d="M37.8932 93.7557C37.1743 94.7835 35.6673 95.2203 34.3747 95.4359C32.7065 95.6821 31.0231 95.8476 29.3328 95.9316L28.3436 96.136C28.1585 96.1835 27.9868 96.2626 27.839 96.3684C27.6165 96.5289 27.4542 96.7411 27.3721 96.979C27.2901 97.2169 27.2919 97.47 27.3774 97.707C27.9837 99.4853 28.8174 101.202 29.8637 102.826L28.3238 104.145C27.8885 103.638 27.8654 102.745 27.2817 102.84C26.7179 102.358 26.0518 102.123 25.3593 102.767C24.0073 104.03 24.2282 106.657 26.2134 107.382L25.7682 109.267C25.6145 109.925 25.1988 110.518 24.591 110.947C23.9827 111.375 23.2178 111.61 22.4278 111.611L22.7576 109.37C20.4493 110.37 17.8113 108.208 18.0058 106.424C18.1245 105.203 17.7981 104.358 16.7429 103.473C16.6736 103.414 17.099 103.193 17.0331 103.134C16.7363 102.364 16.7033 101.454 16.9902 100.953C17.5046 100.042 19.0182 99.5104 18.3092 98.5163C17.9423 98.0213 17.7007 97.467 17.5997 96.8885C17.4986 96.31 17.5404 95.72 17.7222 95.1559C17.9108 94.5118 18.2593 93.9093 18.7445 93.3889C19.7733 92.3332 21.4418 92.6188 22.807 92.2436C24.4558 91.8039 25.2373 90.2833 26.9751 89.8101C27.839 89.5749 28.6403 89.6841 29.5076 89.8521C30.2396 89.9977 30.9651 90.1601 31.6839 90.3533C32.4028 90.5466 33.0359 90.7062 33.7383 90.527C34.6682 90.3085 35.387 89.5636 36.3994 89.558C36.9062 89.5477 37.4023 89.6829 37.8074 89.9417C38.5823 91.0926 38.5889 92.77 37.8932 93.7557Z" fill="#FFD140"/>
<path d="M49.4443 134.098V134.089H50.7996L49.4443 134.098Z" fill="black"/>
<path d="M22.4311 112.196C22.2595 112.186 22.0989 112.121 21.9816 112.014C21.8643 111.907 21.7991 111.767 21.7991 111.62C21.7991 111.474 21.8643 111.334 21.9816 111.227C22.0989 111.12 22.2595 111.055 22.4311 111.045C23.0627 111.045 23.6742 110.857 24.159 110.513C24.6487 110.168 24.9831 109.69 25.1053 109.16L25.4549 107.679C24.6609 107.211 24.115 106.497 23.9347 105.691C23.7796 105.114 23.7833 104.515 23.9458 103.94C24.1082 103.365 24.4249 102.829 24.8712 102.375C25.0355 102.203 25.2405 102.063 25.4728 101.962C25.7051 101.862 25.9596 101.804 26.2199 101.793C26.5164 101.802 26.8075 101.863 27.0748 101.973C27.3421 102.082 27.5798 102.237 27.773 102.428C28.1785 102.806 28.5325 103.221 28.8282 103.666C28.8814 103.732 28.9179 103.806 28.9353 103.885C28.9528 103.963 28.9508 104.044 28.9295 104.121C28.9083 104.199 28.8682 104.272 28.8118 104.336C28.7555 104.4 28.6841 104.453 28.6022 104.492C28.5203 104.531 28.4298 104.555 28.3363 104.563C28.2428 104.57 28.1485 104.561 28.0593 104.536C27.9702 104.511 27.8881 104.471 27.8184 104.418C27.7486 104.364 27.6928 104.299 27.6543 104.226C27.4064 103.858 27.1099 103.515 26.7706 103.204C26.6334 103.058 26.4392 102.959 26.2232 102.924C26.0745 102.954 25.9427 103.028 25.8506 103.131C25.5522 103.45 25.3429 103.823 25.2384 104.221C25.1339 104.618 25.1369 105.031 25.2471 105.428C25.3056 105.727 25.447 106.01 25.6597 106.253C25.8724 106.497 26.1504 106.694 26.4705 106.828C26.6132 106.88 26.7304 106.972 26.8024 107.089C26.8745 107.205 26.897 107.34 26.8662 107.469L26.4211 109.362C26.2379 110.152 25.7394 110.864 25.0097 111.378C24.2811 111.891 23.3645 112.173 22.4179 112.174L22.4311 112.196Z" fill="black"/>
<path d="M21.1879 120.572H21.0989C20.9212 120.551 20.7602 120.472 20.6508 120.352C20.5415 120.231 20.4928 120.079 20.5153 119.928C20.5977 119.401 20.7626 118.264 20.9505 116.984L21.1781 115.427C21.3001 114.624 21.4155 113.834 21.5078 113.168C21.6166 112.417 21.7057 111.821 21.7518 111.535L22.0816 109.295C22.0886 109.217 22.1143 109.141 22.1571 109.071C22.1999 109.002 22.2588 108.941 22.3304 108.891C22.4019 108.842 22.4846 108.805 22.5733 108.784C22.662 108.763 22.7549 108.757 22.8464 108.767C22.9378 108.777 23.0259 108.803 23.1052 108.843C23.1846 108.883 23.2535 108.936 23.3078 108.999C23.3621 109.062 23.4007 109.134 23.4212 109.211C23.4417 109.287 23.4436 109.366 23.427 109.443L23.0972 111.683C23.051 111.963 22.9653 112.563 22.8565 113.302C22.7609 113.971 22.6454 114.761 22.5267 115.567L22.2992 117.119C22.1112 118.401 21.9431 119.541 21.8639 120.068C21.843 120.207 21.7628 120.335 21.6383 120.428C21.5138 120.521 21.3536 120.572 21.1879 120.572V120.572Z" fill="black"/>
<path d="M33.7942 100.56L32.4752 100.3C33.2172 97.5837 36.8609 97.3989 37.0159 97.3933L37.0852 98.5415L37.0522 97.9674L37.0852 98.5415C36.9697 98.5471 34.302 98.6955 33.7942 100.56Z" fill="black"/>
<path d="M38.2559 104.683L38.2229 103.532C39.0077 103.515 39.5419 103.42 39.8354 103.229L37.9525 101.451C37.3 100.831 36.9132 100.041 36.8544 99.2109C36.8544 99.0261 36.8313 98.8188 36.8214 98.6004C36.7819 97.5139 36.7258 96.1585 35.7794 95.2624L36.7687 94.4951C38.0481 95.7021 38.1141 97.3543 38.1602 98.5612C38.1602 98.7684 38.1767 98.9644 38.1899 99.1409C38.2278 99.7148 38.494 100.261 38.945 100.689L41.5006 103.106L41.316 103.448C40.6993 104.629 38.922 104.669 38.2559 104.683Z" fill="black"/>
<path d="M36.3069 101.146C36.4847 101.001 36.5884 100.802 36.5958 100.593C36.6032 100.383 36.5137 100.18 36.3465 100.026C36.1508 99.8997 35.9043 99.8446 35.6609 99.8724C35.4175 99.9002 35.1969 100.009 35.0473 100.174C34.8703 100.32 34.7671 100.518 34.7597 100.727C34.7523 100.937 34.8413 101.14 35.0077 101.294C35.2035 101.42 35.45 101.475 35.6934 101.448C35.9368 101.42 36.1574 101.311 36.3069 101.146V101.146Z" fill="black"/>
<path d="M35.0471 110.945L33.7194 111.176L35.4224 118.24L36.7501 118.01L35.0471 110.945Z" fill="black"/>
<path d="M79.5868 149.925L68.6094 157.606C81.816 174.842 71.8212 178.004 71.8212 178.004C69.8834 178.322 67.9259 178.548 65.9582 178.679C56.4119 179.269 46.6182 177.161 38.7504 172.439C22.8267 162.876 8.95399 143.739 16.3503 127.074C16.9742 125.666 17.7352 124.304 18.6256 123.002C19.3919 121.875 20.3686 120.86 21.5175 119.998C23.9129 118.193 26.9738 117.154 30.1737 117.059C33.3736 116.964 36.5125 117.819 39.0504 119.477C43.2086 122.199 46.9876 126.072 50.262 130.118C53.1578 133.794 55.762 137.63 58.0573 141.599C58.6938 142.686 59.2675 143.708 59.7786 144.649C64.3952 143.053 68.2533 140.342 71.8509 137.413C67.4784 144.372 79.5868 149.925 79.5868 149.925Z" fill="white"/>
<path d="M71.3333 156.427L70.5254 155.506C70.6936 155.399 70.8551 155.287 71.0266 155.178L71.1618 155.089L71.9928 155.999L71.8576 156.088C71.696 156.2 71.5113 156.312 71.3333 156.427Z" fill="black"/>
<path d="M55.5975 145.965C52.1912 145.965 49.2564 144.237 47.2581 140.947C44.3475 136.158 41.4358 131.379 38.5229 126.609L39.7265 126.08C42.6372 130.852 45.5489 135.631 48.4617 140.418C50.1335 143.167 53.276 146.071 58.7499 144.276C64.5074 142.392 69.1404 138.676 73.0315 135.349C77.6282 131.428 81.9348 128.085 88.0649 127.147C97.6475 125.682 105.591 131.109 109.476 134.47C109.997 134.917 110.326 135.501 110.409 136.127C110.493 136.754 110.328 137.387 109.941 137.925C109.692 138.269 109.36 138.563 108.965 138.787C108.571 139.011 108.124 139.16 107.655 139.225C107.187 139.288 106.707 139.264 106.251 139.155C105.794 139.045 105.37 138.854 105.008 138.594C101.1 135.741 97.842 134.156 95.8305 134.131L95.8503 132.98C98.2443 133.011 101.624 134.604 105.891 137.721C106.102 137.874 106.35 137.985 106.617 138.048C107.022 138.144 107.452 138.125 107.844 137.995C108.235 137.865 108.566 137.63 108.786 137.326C109.014 137.007 109.111 136.633 109.061 136.262C109.011 135.892 108.817 135.546 108.509 135.279C104.813 132.081 97.2715 126.92 88.3056 128.278C82.5778 129.149 78.4262 132.369 74.0042 136.15C70.0143 139.563 65.2559 143.372 59.2479 145.34C58.0871 145.739 56.8493 145.951 55.5975 145.965V145.965Z" fill="black"/>
<path d="M91.0985 141.594C89.8752 141.594 88.5067 140.958 87.5735 140.426L88.3286 139.471C89.4267 140.098 90.4094 140.443 91.0985 140.443V141.594Z" fill="black"/>
<path d="M91.857 144.484C90.2346 144.484 88.7936 143.812 87.0558 142.893L87.7747 141.916C90.383 143.296 91.7646 143.8 94.0399 142.826C96.3729 141.823 98.4243 140.406 100.055 138.67C100.304 138.396 100.476 138.076 100.559 137.737C100.641 137.397 100.631 137.046 100.529 136.71C100.446 136.347 100.269 136.003 100.011 135.705C99.7524 135.407 99.4194 135.161 99.0357 134.985L99.6391 133.954C100.206 134.209 100.698 134.567 101.082 135.003C101.465 135.438 101.729 135.941 101.855 136.475C101.997 136.977 102.004 137.5 101.876 138.006C101.748 138.511 101.487 138.985 101.113 139.393C99.3634 141.261 97.1616 142.789 94.6566 143.873C93.7931 144.261 92.8338 144.47 91.857 144.484V144.484Z" fill="black"/>
<path d="M99.1709 141.056L97.8815 140.706C97.911 140.628 97.9277 140.547 97.931 140.465C98.0134 137.864 94.9171 137.161 94.7852 137.13L95.1149 136.01C96.5955 136.324 99.372 137.665 99.283 140.49C99.2761 140.682 99.2384 140.873 99.1709 141.056Z" fill="black"/>
<path d="M95.3821 143.512L94.4983 142.641C94.632 142.559 94.7394 142.45 94.8108 142.324C94.8822 142.198 94.9153 142.058 94.9072 141.919C94.8215 140.852 92.6748 139.435 91.9395 139.02L92.6781 138.057C93.0309 138.25 96.124 140.017 96.2691 141.843C96.2901 142.161 96.2205 142.479 96.0661 142.77C95.9116 143.06 95.677 143.315 95.3821 143.512V143.512Z" fill="black"/>
<path d="M189.605 149.454C183.67 163.411 167.06 163.806 165.161 163.806C165.956 162.369 166.173 159.849 164.429 155.43C165.597 153.967 166.211 152.236 166.189 150.469C166.167 148.701 165.511 146.981 164.307 145.539C164.33 145.52 164.343 145.497 164.363 145.478C165.194 145.436 166.018 145.329 166.826 145.159C169.695 144.576 175.344 143.291 179.828 141.485C182.872 140.255 186.423 142.227 186.16 145.1C186.167 145.137 186.167 145.175 186.16 145.212C186.755 145.213 187.341 145.337 187.868 145.572C188.395 145.807 188.847 146.146 189.187 146.562C189.527 146.979 189.744 147.459 189.82 147.963C189.896 148.466 189.828 148.978 189.622 149.454H189.605Z" fill="#2B2A66"/>
<path d="M113.459 182.19C111.461 185.125 108.351 187.623 105.347 189.804C94.7787 197.477 80.9291 201.358 67.0795 201.51C53.1607 201.358 39.2848 197.455 28.6569 189.86C-4.93496 165.859 1.12917 137.522 6.56678 124.389C6.75859 123.935 7.01789 123.504 7.3384 123.106C7.75979 122.574 8.30967 122.124 8.95153 121.786C9.59339 121.448 10.3126 121.23 11.0613 121.146C13.9137 121.482 16.5022 123.506 16.0438 126.643C16.0438 126.763 15.9878 126.923 15.9746 127.052C8.58156 143.714 22.4608 162.851 38.3746 172.417C45.5962 176.755 54.4368 178.886 63.2247 178.748H63.3237C64.0799 178.735 64.8328 178.706 65.5825 178.659C70.5287 178.351 75.3134 177.34 80.0619 176.113C85.6347 174.688 91.1481 172.957 96.7176 171.748C98.6764 171.319 100.638 170.908 102.61 170.524C103.748 170.324 104.913 170.256 106.073 170.32C112.915 170.731 117.72 175.937 113.459 182.19Z" fill="#D7E8F0"/>
<path d="M115.151 182.19C113.152 185.125 110.04 187.623 107.032 189.804C96.0317 197.78 81.516 201.678 67.0795 201.51C53.164 201.358 39.288 197.455 28.6601 189.86C-4.93503 165.859 1.12911 137.522 6.56672 124.389C6.75852 123.935 7.01783 123.504 7.33834 123.106C7.75973 122.574 8.30961 122.124 8.95147 121.786C9.59333 121.448 10.3125 121.23 11.0612 121.146C13.9136 121.482 16.5021 123.506 16.0438 126.643C16.0438 126.763 15.9877 126.923 15.9745 127.052C8.5815 143.714 22.4608 162.851 38.3746 172.417C45.5961 176.755 54.4368 178.886 63.2247 178.748H63.3236C64.6426 178.765 65.9616 178.748 67.2806 178.659C72.2269 178.351 77.0083 177.34 81.76 176.113C87.3361 174.688 92.8496 172.957 98.4191 171.748C100.371 171.319 102.337 170.908 104.308 170.524C104.893 170.421 105.486 170.352 106.083 170.32C113.762 169.894 119.754 175.433 115.151 182.19Z" fill="#DB6AB5"/>
<path d="M69.3877 201.47L72.7676 205.564C72.7676 205.564 93.2123 206.245 104.424 214.287C104.879 214.616 105.204 215.054 105.357 215.544C105.51 216.033 105.483 216.551 105.28 217.028C105.076 217.504 104.706 217.916 104.219 218.209C103.732 218.501 103.151 218.66 102.554 218.664C101.876 218.667 101.218 218.463 100.701 218.09C98.0629 216.189 87.9593 210.219 65.1174 210.039C42.8625 209.86 34.3252 215.755 31.9675 217.903C31.6987 218.145 31.374 218.337 31.0138 218.469C30.6536 218.6 30.2654 218.666 29.8735 218.664H29.4251C26.6519 218.664 25.468 215.668 27.6675 214.212C37.0127 207.992 57.9618 206.01 57.9618 206.01L61.5396 201.398" fill="#353642"/>
<path d="M159.908 178.774C159.908 178.774 166.173 183.867 164.218 199.656C164.08 200.781 163.628 201.862 162.899 202.809L162.216 203.688C161.104 205.116 159.421 206.153 157.478 206.609C153.385 207.564 145.959 209.779 141.376 213.979C139.44 215.758 140.881 218.653 143.72 218.653C144.251 218.655 144.773 218.544 145.241 218.331C145.709 218.117 146.108 217.809 146.401 217.432C148.268 215.027 153.923 209.922 167.558 210.028C182.941 210.149 189.137 215.382 191.122 217.639C191.396 217.953 191.753 218.209 192.164 218.384C192.572 218.565 193.024 218.661 193.483 218.664V218.664C194.059 218.662 194.621 218.518 195.102 218.25C195.583 217.978 195.96 217.593 196.189 217.142C196.417 216.691 196.486 216.194 196.388 215.71C196.29 215.226 196.031 214.776 195.64 214.413C189.642 208.838 182.305 206.757 178.255 205.987C176.45 205.652 174.827 204.817 173.641 203.613C172.456 202.409 171.775 200.905 171.706 199.336C171.479 194.442 171.377 182.557 175.238 178.788" fill="#353642"/>
<path d="M80.4113 176.654L79.8145 175.634C90.7128 171.109 102.515 168.113 114.659 165.192C125.079 162.686 136.453 160.252 150.457 157.525C151.996 157.228 153.535 156.938 155.074 156.654C158.285 156.055 161.606 155.433 164.834 154.722L165.164 155.842C161.909 156.559 158.569 157.18 155.354 157.782C153.821 158.062 152.287 158.356 150.757 158.653C136.779 161.375 125.426 163.806 115.029 166.304C102.947 169.194 91.2074 172.17 80.4113 176.654Z" fill="black"/>
<path d="M90.4655 141.529L90.4523 140.378H90.4589L90.4655 141.529Z" fill="black"/>
<path d="M51.3008 163.792C49.232 163.798 47.1804 163.473 45.2531 162.834C44.9926 162.753 44.7354 162.655 44.5376 162.579C31.2881 157.502 21.4286 144.8 20.5646 131.692C20.5382 131.294 20.5217 130.88 20.5151 130.46C20.4492 127.287 20.9174 123.383 25.1811 121.378L25.8406 122.383C22.2134 124.083 21.8111 127.41 21.8836 130.443C21.8836 130.849 21.9034 131.244 21.9331 131.625C22.7673 144.324 32.3005 156.623 45.1113 161.532C45.2861 161.599 45.5169 161.686 45.7478 161.759C52.5011 163.999 60.5866 161.958 70.5319 155.509C70.7067 155.399 70.8617 155.287 71.0397 155.178L71.1749 155.089C72.1642 154.433 73.1534 153.75 74.1954 153.005C77.9824 150.265 81.5753 147.337 84.9552 144.237C85.2125 144.002 85.9115 143.176 86.5842 142.378C87.2514 141.536 87.9736 140.726 88.7474 139.953L89.707 140.768C89.3772 141.048 88.4374 142.168 87.6856 143.047C86.9338 143.926 86.2611 144.727 85.9445 145.007C82.5255 148.141 78.892 151.1 75.0627 153.87C74.0042 154.626 73.0017 155.315 72.0026 155.982L71.8641 156.074C71.6926 156.186 71.5179 156.304 71.3398 156.413C63.7522 161.353 57.1374 163.792 51.3008 163.792Z" fill="black"/>
<path d="M66.2682 202.067C51.9339 202.067 37.5798 198.146 26.5892 190.305C11.8031 179.728 3.0845 167.233 0.677313 153.128C-1.34077 141.325 1.53137 130.888 4.30458 124.209C5.62359 121.02 9.13874 120.149 11.8394 120.689C14.5401 121.23 17.2704 123.355 16.7857 126.735L16.7329 127.099L15.3875 126.954L15.4403 126.592C15.8327 123.904 13.7619 122.252 11.536 121.809C9.31022 121.367 6.63923 122.059 5.60051 124.59C-0.265777 138.765 -5.22524 166.035 27.4894 189.415C48.9893 204.786 83.7616 204.763 105.001 189.367C107.817 187.326 110.963 184.845 112.971 181.899C114.979 178.953 114.989 176.052 113.047 173.856C110.828 171.336 106.62 170.303 102.33 171.201L102 170.081C106.818 169.07 111.563 170.28 114.122 173.162C116.407 175.746 116.414 179.14 114.122 182.473C112.011 185.567 108.76 188.135 105.858 190.238C94.983 198.124 80.6388 202.067 66.2682 202.067Z" fill="black"/>
<path d="M29.8802 219.241H29.4251C28.6809 219.246 27.9539 219.05 27.3486 218.683C26.7432 218.315 26.2904 217.794 26.0551 217.194C25.8016 216.588 25.7809 215.928 25.9959 215.311C26.211 214.694 26.6507 214.15 27.2521 213.758C36.1191 207.855 54.8028 205.752 57.5695 205.469L60.9725 201.078L62.1035 201.708L58.3543 206.553L58.0245 206.581C57.8168 206.601 37.1578 208.62 28.0732 214.666C27.6936 214.909 27.4158 215.25 27.2805 215.637C27.1452 216.025 27.1595 216.439 27.3213 216.819C27.4638 217.193 27.7437 217.518 28.1201 217.747C28.4964 217.976 28.9492 218.096 29.412 218.09H29.8538C30.1532 218.092 30.4496 218.04 30.7244 217.939C30.9978 217.838 31.2445 217.692 31.4498 217.508C34.1307 215.069 42.6416 209.46 64.0952 209.46H65.0845C88.1671 209.642 98.4917 215.772 101.1 217.645C101.492 217.928 101.99 218.084 102.505 218.085V218.085C102.963 218.089 103.411 217.971 103.785 217.748C104.16 217.524 104.442 217.206 104.592 216.839C104.758 216.471 104.783 216.069 104.665 215.688C104.547 215.308 104.29 214.969 103.933 214.719C93.0508 206.897 72.8963 206.139 72.6952 206.133H72.3654L68.7909 201.806L69.9022 201.146L73.0909 205.007C75.9004 205.136 94.228 206.248 104.816 213.853C105.377 214.258 105.778 214.798 105.967 215.402C106.155 216.006 106.122 216.645 105.87 217.232C105.619 217.819 105.162 218.327 104.561 218.687C103.96 219.047 103.244 219.243 102.508 219.247V219.247C101.672 219.246 100.863 218.993 100.226 218.533C97.7068 216.724 87.722 210.798 65.0746 210.619C42.8098 210.443 34.4539 216.455 32.4292 218.3C32.0992 218.599 31.7008 218.837 31.2585 219C30.8161 219.162 30.3392 219.247 29.8571 219.247L29.8802 219.241Z" fill="black"/>
<path d="M58.1399 141.815L57.7838 140.695C66.176 138.757 69.556 128.063 70.8255 121.86L72.1445 122.059C70.5419 129.989 66.7992 139.818 58.1399 141.815Z" fill="black"/>
<path d="M49.9917 130.709L49.8136 129.569C52.0864 129.311 54.243 128.562 56.0764 127.392C57.9098 126.222 59.3584 124.672 60.2832 122.89C60.4462 122.594 60.5264 122.271 60.5173 121.944C60.5073 121.621 60.4091 121.305 60.2305 121.02C60.0953 120.807 59.9502 120.586 59.8018 120.362C58.8818 118.962 57.8233 117.396 58.153 115.682C58.3104 114.975 58.7111 114.323 59.3045 113.81C59.8979 113.296 60.6573 112.943 61.4868 112.795C62.3042 112.615 63.1642 112.628 63.9731 112.834C64.4831 112.96 64.9538 113.18 65.3515 113.479C65.7522 113.779 66.0697 114.151 66.2814 114.568C66.7002 115.408 66.3638 116.343 65.4109 117.021C64.743 117.449 63.9697 117.744 63.1488 117.883L63.0564 117.906C62.9014 117.942 62.509 118.009 62.3475 118.035L62.0903 116.915C62.4365 116.859 62.6409 116.817 62.6871 116.805L62.7893 116.783C63.4209 116.681 64.0185 116.463 64.5403 116.144C64.725 116.016 65.2987 115.554 65.0349 115.024C64.9022 114.766 64.7054 114.535 64.4579 114.347C64.208 114.161 63.913 114.024 63.5939 113.946C63.0174 113.796 62.4026 113.786 61.8199 113.918C61.248 114.015 60.7222 114.252 60.3082 114.601C59.8942 114.949 59.6102 115.394 59.4918 115.878C59.2445 117.195 60.1249 118.525 60.9757 119.813C61.1274 120.042 61.2791 120.269 61.4176 120.491C61.6966 120.933 61.8502 121.425 61.8663 121.926C61.8823 122.428 61.7603 122.926 61.5099 123.38C60.4823 125.329 58.8894 127.025 56.8802 128.309C54.8644 129.598 52.4922 130.424 49.9917 130.709V130.709Z" fill="black"/>
<path d="M165.121 155.825L164.841 154.705C165.009 154.677 181.497 151.678 184.484 147.575C185.026 146.851 185.364 146.031 185.474 145.178L186.822 145.299C186.691 146.325 186.285 147.313 185.635 148.186C182.347 152.691 165.824 155.699 165.121 155.825Z" fill="black"/>
<path d="M62.4365 179.351C53.5892 179.351 45.0256 177.11 38.0348 172.91C28.7688 167.346 21.0295 159.222 16.7955 150.628C13.3298 143.585 10.6918 133.025 17.7089 122.708C18.7525 121.169 20.1711 119.837 21.8697 118.801C23.5684 117.766 25.5079 117.05 27.5586 116.702C29.5697 116.367 31.6418 116.401 33.6361 116.802C35.6304 117.202 37.5011 117.959 39.123 119.023C48.7221 125.307 56.3559 137.628 60.0491 144.411L58.8356 144.893C55.2083 138.203 47.6834 126.066 38.3118 119.93C36.8429 118.967 35.1487 118.282 33.3426 117.919C31.5364 117.557 29.66 117.527 27.8389 117.83C25.9773 118.145 24.2166 118.795 22.6747 119.735C21.1329 120.676 19.8457 121.885 18.8993 123.282C6.64907 141.249 23.1861 162.568 38.8295 171.966C46.4138 176.522 55.9272 178.701 65.5955 178.102C69.7899 177.841 74.2119 177.065 79.9331 175.581C82.004 175.052 84.1012 174.461 86.1291 173.901C89.5586 172.949 93.1034 171.966 96.6185 171.202C116.074 166.948 136.71 164.346 157.952 163.462C160.224 163.361 162.592 163.279 164.993 163.221H165.016C168.341 163.181 171.632 162.644 174.737 161.633C181.645 159.393 186.433 155.226 188.969 149.261C189.136 148.871 189.19 148.452 189.127 148.04C189.064 147.629 188.885 147.236 188.606 146.895C188.329 146.557 187.96 146.28 187.531 146.088C187.102 145.901 186.625 145.805 186.143 145.808H185.22L185.483 145.075C185.535 144.531 185.416 143.985 185.138 143.493C184.86 143.001 184.433 142.58 183.901 142.274C183.354 141.952 182.716 141.758 182.052 141.713C181.388 141.668 180.722 141.774 180.122 142.019C175.601 143.831 169.962 145.111 166.994 145.724C165.776 145.973 164.528 146.099 163.275 146.099H144.571C144.241 146.099 110.989 145.735 81.8852 148.382L81.7434 147.236C110.936 144.584 144.241 144.946 144.571 144.949H163.255C164.403 144.949 165.548 144.834 166.664 144.604C169.579 144.01 175.126 142.747 179.525 140.964C180.339 140.63 181.244 140.486 182.145 140.547C183.047 140.607 183.913 140.87 184.656 141.308C185.31 141.683 185.85 142.185 186.229 142.773C186.608 143.361 186.816 144.018 186.835 144.688C187.47 144.78 188.072 144.99 188.601 145.301C189.13 145.613 189.572 146.019 189.895 146.492C190.219 146.964 190.417 147.491 190.475 148.035C190.533 148.579 190.45 149.128 190.232 149.642C186.891 157.5 180.191 161.09 175.159 162.717C171.907 163.783 168.455 164.345 164.97 164.374C162.589 164.433 160.234 164.514 157.979 164.615C136.838 165.495 116.298 168.085 96.9285 172.319C93.4529 173.075 89.9279 174.052 86.5215 174.999C84.487 175.559 82.3832 176.147 80.2991 176.679C74.479 178.183 69.9647 178.973 65.6648 179.241C64.5898 179.314 63.5137 179.351 62.4365 179.351Z" fill="black"/>
<path d="M189.216 178.197H148.188V179.348H189.216V178.197Z" fill="black"/>
<path d="M140.585 171.683H139.229C139.229 169.653 140.178 167.706 141.867 166.27C142.696 165.56 143.682 164.996 144.769 164.612C145.855 164.227 147.021 164.029 148.199 164.03H189.226C190.404 164.029 191.57 164.226 192.658 164.611C193.745 164.996 194.732 165.559 195.561 166.27C197.25 167.706 198.199 169.653 198.199 171.683H196.837C196.84 169.957 196.036 168.3 194.601 167.077C193.899 166.472 193.062 165.991 192.139 165.663C191.217 165.335 190.227 165.165 189.226 165.164H148.199C147.199 165.166 146.21 165.337 145.288 165.665C144.366 165.993 143.53 166.473 142.827 167.077C141.393 168.301 140.587 169.957 140.585 171.683V171.683Z" fill="black"/>
<path d="M198.321 174.198C198.323 175.411 197.761 176.575 196.758 177.438C196.263 177.865 195.673 178.203 195.023 178.435C194.374 178.664 193.678 178.781 192.975 178.779H144.423C143.205 178.68 142.083 178.177 141.3 177.379C140.512 176.579 140.123 175.55 140.215 174.51C140.306 173.47 140.872 172.501 141.791 171.809C142.706 171.121 143.905 170.768 145.125 170.829H193.675C194.539 170.828 195.39 171.006 196.155 171.347C196.92 171.689 197.575 172.184 198.063 172.789C198.236 173.248 198.324 173.725 198.324 174.206L198.321 174.198Z" fill="#DB6AB5"/>
<path d="M144.294 179.351C142.718 179.347 141.207 178.817 140.087 177.875C139.513 177.393 139.057 176.82 138.747 176.188C138.436 175.556 138.276 174.877 138.276 174.192C138.276 173.507 138.436 172.829 138.747 172.197C139.057 171.565 139.513 170.991 140.087 170.51C140.658 170.03 141.338 169.652 142.085 169.399C142.832 169.147 143.632 169.024 144.436 169.04H192.972C194.249 169.04 195.491 169.389 196.517 170.034C197.551 170.674 198.318 171.578 198.706 172.613C199.146 173.78 199.09 175.042 198.548 176.178C198.243 176.806 197.795 177.377 197.229 177.858C196.673 178.335 196.011 178.713 195.281 178.972C194.552 179.23 193.769 179.362 192.979 179.362H144.294V179.351ZM144.317 170.191C143.393 170.192 142.49 170.426 141.722 170.862C140.953 171.298 140.353 171.917 139.997 172.641C139.633 173.382 139.537 174.198 139.722 174.986C139.908 175.773 140.367 176.496 141.04 177.06C141.482 177.431 142.009 177.723 142.587 177.919C143.165 178.114 143.784 178.209 144.406 178.197H192.972C193.587 178.203 194.196 178.101 194.763 177.897C195.623 177.594 196.358 177.08 196.874 176.422C197.39 175.763 197.664 174.989 197.661 174.198V174.198C197.662 173.777 197.585 173.358 197.434 172.957C197.132 172.154 196.537 171.453 195.735 170.955C194.939 170.458 193.977 170.191 192.989 170.193H144.317V170.191Z" fill="black"/>
<path d="M69.7735 124.251H64.4414C63.8954 124.251 63.369 124.079 62.9631 123.769C62.5572 123.458 62.3004 123.032 62.2419 122.571L61.4802 116.97L62.0968 116.87C62.4431 116.814 62.6475 116.774 62.6937 116.76L62.8454 116.727C63.5049 116.573 64.0852 116.447 64.5403 116.105C64.8338 115.895 65.2855 115.467 65.0448 114.985C64.911 114.725 64.7131 114.493 64.4645 114.305C64.215 114.118 63.9199 113.982 63.6005 113.904C63.0234 113.756 62.4096 113.747 61.8264 113.876L61.0713 114.047L60.8207 112.182C60.7839 111.917 60.8143 111.649 60.9097 111.395C61.005 111.142 61.1611 110.908 61.3681 110.709C61.5754 110.511 61.8292 110.351 62.1133 110.241C62.3983 110.132 62.7075 110.076 63.0201 110.076H71.2079C71.5199 110.077 71.8281 110.135 72.1122 110.244C72.3963 110.354 72.65 110.513 72.8566 110.712C73.0632 110.91 73.2183 111.143 73.3117 111.395C73.4064 111.648 73.4379 111.915 73.404 112.179L73.2128 113.557L71.8674 113.422L72.0586 112.047C72.0675 111.947 72.0528 111.845 72.0155 111.749C71.9781 111.653 71.9188 111.564 71.841 111.487C71.76 111.41 71.6612 111.349 71.5508 111.305C71.4411 111.263 71.3219 111.241 71.2013 111.241H63.0168C62.8973 111.241 62.7793 111.263 62.6706 111.305C62.559 111.347 62.4598 111.409 62.3804 111.487C62.2966 111.568 62.2347 111.664 62.1991 111.767C62.1623 111.868 62.1499 111.974 62.1628 112.078L62.2419 112.675C62.8272 112.63 63.4173 112.681 63.9797 112.826C64.4888 112.952 64.9593 113.171 65.3581 113.467C65.7589 113.768 66.0755 114.141 66.2847 114.559C66.7035 115.399 66.3803 116.304 65.4207 117.004C64.7681 117.433 64.0073 117.727 63.1982 117.864L63.0597 117.895L62.9641 117.914L63.584 122.451C63.6084 122.631 63.7092 122.797 63.8676 122.918C64.0251 123.037 64.2278 123.102 64.4381 123.103H69.7735C69.9837 123.102 70.1864 123.037 70.3439 122.918C70.5025 122.796 70.6043 122.629 70.6308 122.448L70.7264 121.742L72.0718 121.877L71.9762 122.582C71.9124 123.042 71.6533 123.466 71.2474 123.775C70.8416 124.082 70.317 124.252 69.7735 124.251V124.251Z" fill="black"/>
<path d="M70.9602 116.138L70.9529 116.185L72.2946 116.335L72.3019 116.287L70.9602 116.138Z" fill="black"/>
<path d="M71.0332 119.556V119.538H72.3885L71.0332 119.556Z" fill="black"/>
<path d="M71.6267 122.409C71.5082 122.408 71.3901 122.398 71.2739 122.378C70.7849 122.306 70.3459 122.08 70.0439 121.745C69.8138 121.495 69.6702 121.195 69.6291 120.88C69.588 120.565 69.651 120.246 69.8111 119.959C69.9713 119.672 70.2222 119.429 70.5358 119.256C70.8495 119.083 71.2135 118.988 71.5872 118.981C71.6289 118.978 71.6708 118.978 71.7125 118.981C71.7727 118.976 71.8336 118.976 71.8938 118.981L71.6795 120.101C71.7274 120.11 71.7767 120.11 71.8246 120.101L71.7323 120.115H71.6696H71.6234C71.4607 120.117 71.3045 120.17 71.1849 120.264C71.0639 120.36 70.9897 120.491 70.9771 120.631C70.9625 120.771 71.0107 120.911 71.1123 121.023C71.2127 121.132 71.3572 121.206 71.5179 121.23C71.5786 121.242 71.6419 121.242 71.7026 121.23C72.1788 121.168 72.6161 120.971 72.9424 120.67C73.4284 119.977 73.7739 119.22 73.9647 118.43V118.43L74.0009 118.278C74.0887 117.898 74.1438 117.512 74.1658 117.125C73.4758 117.234 72.7719 117.267 72.0719 117.223C71.6861 117.2 71.4124 117.169 71.4124 117.169C70.9977 117.128 70.5973 117.015 70.236 116.838C69.8747 116.66 69.5602 116.421 69.3119 116.136C69.1238 115.927 68.9918 115.686 68.9251 115.429C68.8585 115.172 68.8588 114.906 68.9261 114.649C69.2822 113.322 71.053 112.773 72.5533 112.93L72.6984 112.952C73.3983 113.054 74.0417 113.343 74.5351 113.776C75.0285 114.21 75.3462 114.766 75.442 115.363V115.402C75.493 115.707 75.5216 116.014 75.5277 116.321C75.5277 116.38 75.5277 116.439 75.5277 116.497L75.6068 116.576C75.5831 116.595 75.5577 116.613 75.531 116.629C75.5395 117.236 75.4777 117.842 75.3463 118.438C75.3463 118.472 75.3463 118.505 75.3298 118.539C75.1119 119.528 74.6875 120.476 74.0768 121.339L74.0075 121.418C73.4778 121.938 72.7493 122.283 71.9499 122.392C71.8431 122.407 71.7348 122.412 71.6267 122.409V122.409ZM72.0554 114.064C71.3267 114.064 70.4067 114.302 70.2385 114.904C70.215 115.002 70.2176 115.103 70.2462 115.2C70.2747 115.297 70.3284 115.387 70.4034 115.464C70.6841 115.772 71.0965 115.973 71.5509 116.024C71.5905 116.024 71.8246 116.052 72.1543 116.072C72.8178 116.124 73.4871 116.08 74.1328 115.94C74.1328 115.808 74.0999 115.677 74.0801 115.54V115.509C74.0199 115.153 73.8283 114.822 73.5327 114.565C73.2479 114.315 72.8775 114.147 72.4742 114.086C72.4175 114.083 72.3612 114.076 72.306 114.064C72.2269 114.067 72.1411 114.064 72.0554 114.064Z" fill="black"/>
<path d="M72.2005 120.135C71.6034 120.128 71.0079 120.08 70.4198 119.992C69.8509 119.918 69.3357 119.665 68.9769 119.283C68.618 118.901 68.4418 118.418 68.4834 117.93C68.525 117.443 68.7813 116.987 69.2013 116.653C69.6213 116.319 70.1741 116.131 70.7496 116.128H72.9028V117.278H70.7529C70.5185 117.279 70.2937 117.358 70.1263 117.497C70.001 117.599 69.9117 117.729 69.8684 117.872C69.8251 118.015 69.8296 118.166 69.8812 118.307C69.9329 118.448 70.0298 118.574 70.161 118.67C70.2923 118.767 70.4527 118.831 70.6243 118.855C73.4107 119.239 73.8855 118.684 74.0009 118.236L75.3199 118.48C74.9935 119.838 73.503 120.135 72.2005 120.135Z" fill="black"/>
<path d="M143.717 219.23C142.957 219.234 142.213 219.048 141.578 218.694C140.942 218.34 140.444 217.835 140.146 217.242C139.836 216.641 139.739 215.976 139.869 215.329C139.998 214.682 140.348 214.081 140.875 213.601C145.593 209.28 153.188 207.026 157.293 206.066C159.079 205.65 160.627 204.697 161.649 203.386L162.328 202.506C163.003 201.638 163.424 200.645 163.555 199.611C165.454 184.279 159.512 179.252 159.45 179.202L160.386 178.362C160.653 178.578 166.869 183.831 164.904 199.72C164.748 200.938 164.253 202.107 163.459 203.131L162.78 204.007C161.576 205.551 159.755 206.673 157.652 207.166C153.695 208.093 146.358 210.263 141.871 214.371C141.519 214.688 141.286 215.086 141.201 215.515C141.115 215.944 141.18 216.385 141.389 216.782C141.579 217.172 141.903 217.504 142.318 217.736C142.733 217.968 143.22 218.088 143.717 218.082V218.082C144.135 218.082 144.547 217.994 144.915 217.825C145.283 217.657 145.595 217.413 145.824 217.116C147.625 214.8 153.283 209.454 167.126 209.454H167.555C183.185 209.574 189.615 214.976 191.656 217.295C191.893 217.567 192.21 217.782 192.576 217.917C192.941 218.051 193.343 218.101 193.738 218.062C194.134 218.022 194.511 217.894 194.83 217.691C195.149 217.488 195.398 217.217 195.554 216.906C195.733 216.553 195.788 216.164 195.712 215.786C195.637 215.412 195.435 215.064 195.132 214.786C189.233 209.3 181.942 207.259 178.097 206.528C176.146 206.166 174.391 205.263 173.109 203.962C171.828 202.66 171.092 201.034 171.017 199.339C170.73 193.136 170.833 182.168 174.717 178.39L175.739 179.149C171.924 182.856 172.198 195.506 172.373 199.294C172.435 200.736 173.061 202.118 174.15 203.224C175.24 204.33 176.731 205.098 178.391 205.405C182.381 206.164 189.981 208.292 196.128 214.007C196.488 214.338 196.759 214.731 196.923 215.159C197.086 215.587 197.138 216.04 197.076 216.487C197.013 216.934 196.837 217.365 196.559 217.748C196.282 218.132 195.91 218.46 195.468 218.709C194.937 219.011 194.321 219.186 193.684 219.218C193.046 219.25 192.41 219.137 191.841 218.891C191.337 218.673 190.899 218.358 190.562 217.973C188.646 215.794 182.559 210.714 167.535 210.597H167.12C153.93 210.597 148.627 215.581 146.949 217.743C146.595 218.197 146.115 218.571 145.551 218.829C144.986 219.088 144.355 219.223 143.714 219.224L143.717 219.23Z" fill="black"/>
<path d="M104.157 146.464C103.229 146.459 102.34 146.149 101.677 145.598C100.885 144.94 100.432 144.044 100.414 143.103V143.025C100.414 141.174 102.063 139.634 104.061 139.592C104.061 139.592 125.531 139.073 142.157 138.681H142.668L142.82 139.096C143.061 139.74 143.654 140.325 144.594 140.829C145.272 141.177 146.059 141.342 146.85 141.303L147.562 141.272V142.235C147.562 144.475 145.913 145.64 142.616 145.71L104.242 146.464H104.157ZM141.715 139.844C125.162 140.233 104.097 140.742 104.097 140.742C102.811 140.768 101.769 141.793 101.769 143.025V143.092C101.78 143.724 102.084 144.328 102.614 144.772C102.823 144.951 103.071 145.092 103.345 145.188C103.619 145.284 103.913 145.333 104.21 145.332L142.593 144.551C145.013 144.5 146.108 143.865 146.203 142.437C145.387 142.379 144.597 142.161 143.895 141.801C142.96 141.342 142.203 140.662 141.715 139.844Z" fill="black"/>
<path d="M141.716 139.844C125.162 140.233 104.097 140.742 104.097 140.742C102.811 140.768 101.769 141.793 101.769 143.025V143.092C101.78 143.724 102.084 144.328 102.614 144.772C102.823 144.951 103.071 145.092 103.345 145.188C103.619 145.284 103.913 145.333 104.21 145.332L142.593 144.551C145.013 144.5 146.108 143.865 146.203 142.437C145.387 142.378 144.597 142.161 143.895 141.801C142.96 141.342 142.203 140.662 141.716 139.844Z" fill="#D0CDE1"/>
<path d="M146.992 140.451C146.42 140.451 145.856 140.34 145.343 140.126C144.7 139.855 144.16 139.435 143.783 138.916C143.407 138.397 143.209 137.799 143.213 137.189C143.215 137.041 143.227 136.893 143.249 136.746C143.301 136.414 143.412 136.09 143.579 135.786L160.726 105.671C161.092 105.032 161.696 104.514 162.445 104.198C163.194 103.881 164.045 103.784 164.866 103.922C165.687 104.059 166.431 104.423 166.982 104.958C167.534 105.492 167.861 106.166 167.914 106.875L167.931 107.102C167.932 107.588 167.801 108.067 167.548 108.502L150.401 138.611C150.158 139.036 149.809 139.411 149.377 139.708C148.945 140.006 148.441 140.219 147.902 140.334C147.605 140.405 147.299 140.444 146.992 140.451V140.451ZM164.158 105.007C163.798 105.007 163.442 105.075 163.116 105.206C162.618 105.41 162.215 105.751 161.972 106.172L144.825 136.287C144.714 136.482 144.64 136.689 144.604 136.903C144.588 136.996 144.579 137.089 144.578 137.183C144.577 137.578 144.705 137.966 144.947 138.303C145.185 138.636 145.527 138.906 145.936 139.082C146.448 139.297 147.033 139.348 147.585 139.225C147.934 139.153 148.26 139.017 148.538 138.824C148.816 138.631 149.041 138.39 149.198 138.116L166.345 108.007C166.471 107.786 166.551 107.548 166.579 107.304V107.304V107.091C166.578 106.619 166.391 106.16 166.048 105.789C165.707 105.421 165.229 105.163 164.693 105.055C164.517 105.022 164.338 105.006 164.158 105.007V105.007Z" fill="black"/>
<path d="M28.327 104.716C28.1785 104.717 28.0336 104.677 27.9144 104.602C27.7953 104.527 27.7086 104.42 27.6675 104.299C27.6596 104.273 27.6497 104.248 27.6378 104.223L27.5851 104.092C27.5587 104.032 27.5356 103.973 27.5158 103.915C27.4695 103.767 27.4945 103.609 27.5854 103.476C27.6763 103.343 27.8256 103.246 28.0005 103.207C28.1755 103.167 28.3616 103.189 28.5181 103.266C28.6745 103.343 28.7885 103.47 28.8348 103.618C28.8348 103.646 28.8579 103.672 28.8678 103.697L28.9238 103.834L28.9832 103.983C29.0071 104.056 29.0134 104.133 29.0019 104.209C28.9904 104.285 28.9612 104.358 28.9161 104.424C28.871 104.491 28.8109 104.548 28.7392 104.595C28.6675 104.641 28.5856 104.675 28.4985 104.694C28.4426 104.707 28.385 104.715 28.327 104.716V104.716Z" fill="black"/>
<path d="M28.327 104.719C28.1936 104.718 28.0635 104.684 27.9528 104.621C27.8421 104.558 27.7557 104.469 27.7043 104.364C27.653 104.26 27.639 104.145 27.6641 104.034C27.6892 103.922 27.7523 103.82 27.8455 103.739L29.3756 102.414C29.4367 102.356 29.5112 102.309 29.5944 102.276C29.6776 102.243 29.7678 102.225 29.8596 102.222C29.9514 102.219 30.0429 102.233 30.1285 102.261C30.2141 102.289 30.2921 102.332 30.3577 102.386C30.4233 102.441 30.4752 102.506 30.5102 102.578C30.5453 102.651 30.5627 102.728 30.5616 102.806C30.5604 102.884 30.5406 102.961 30.5034 103.032C30.4662 103.104 30.4123 103.168 30.345 103.221L28.8084 104.548C28.6809 104.657 28.5077 104.719 28.327 104.719V104.719Z" fill="black"/>
<path d="M37.4743 107.752C34.467 107.615 33.6426 105.601 33.6096 105.511L34.8924 105.145C34.9154 105.201 35.4826 106.506 37.5304 106.598L37.4743 107.752Z" fill="black"/>
<path d="M21.5407 110.205C20.7648 110.196 20.01 109.989 19.3743 109.611C18.0553 108.847 17.2243 107.55 17.343 106.383C17.4277 105.926 17.3764 105.458 17.1939 105.022C17.0113 104.586 16.7032 104.196 16.2977 103.887C16.212 103.817 16.1394 103.747 16.0702 103.68C15.5793 103.22 15.261 102.646 15.1559 102.032C15.0508 101.417 15.1636 100.79 15.4799 100.23C15.6312 99.9463 15.8122 99.6745 16.0207 99.4181C16.4626 98.8357 16.5879 98.6312 16.3043 98.2224C15.6685 97.3061 15.3759 96.2472 15.4654 95.1863C15.5549 94.1255 16.0223 93.1128 16.8055 92.2829C17.6925 91.3616 18.9126 91.2328 19.9909 91.1207C20.4425 91.0857 20.8894 91.0164 21.3264 90.9135C22.0189 90.7231 22.5696 90.2835 23.1532 89.813C23.8127 89.2837 24.5613 88.6929 25.6165 88.4128C26.5904 88.1925 27.6169 88.2032 28.5842 88.4436C29.4515 88.6173 30.2 88.7909 30.8925 88.9757C31.6279 89.1717 32.1093 89.2837 32.6237 89.1521C32.9579 89.0508 33.2758 88.9144 33.5701 88.7461C34.1477 88.3855 34.8336 88.171 35.5486 88.1272C36.1559 88.1332 36.7495 88.2814 37.2638 88.5557C37.7782 88.8299 38.1934 89.2195 38.4636 89.6814C39.3111 91.0031 39.3276 92.8905 38.4966 94.0723C37.8173 95.0468 36.5181 95.6853 34.5396 96.0325C33.1751 96.2484 31.7964 96.3934 30.4111 96.4666L29.4779 96.531L28.5776 96.7214C28.3822 96.7789 28.2206 96.8987 28.1271 97.0554C28.0336 97.2122 28.0154 97.3936 28.0764 97.5615C28.6603 99.2924 29.4653 100.964 30.477 102.546L29.2866 103.106C28.2223 101.45 27.3753 99.6995 26.7607 97.8863C26.5912 97.4244 26.6442 96.9242 26.9082 96.4954C27.1721 96.0666 27.6254 95.744 28.1688 95.5985H28.2083L29.2833 95.3772L30.2726 95.3072C31.6002 95.2365 32.9215 95.0981 34.2296 94.8928C35.8223 94.6127 36.828 94.1563 37.3029 93.4758C37.8865 92.6357 37.8602 91.1852 37.2435 90.2246C37.0886 89.9502 36.8487 89.7167 36.5496 89.549C36.2505 89.3813 35.9034 89.2857 35.5453 89.2725V89.2725C35.0766 89.3229 34.6318 89.4775 34.256 89.7206C33.8649 89.9444 33.4401 90.1225 32.993 90.2499C32.04 90.4935 31.2025 90.2666 30.4638 90.065C29.8043 89.8914 29.1019 89.7262 28.271 89.5582C27.3708 89.3845 26.7112 89.3173 26.0155 89.505C25.257 89.7094 24.6965 90.1714 24.0732 90.6587C23.4137 91.1935 22.718 91.748 21.732 92.0169C21.2136 92.143 20.6827 92.2283 20.1459 92.2717C19.2028 92.3697 18.3883 92.4537 17.8376 93.0138C17.4006 93.4862 17.0865 94.032 16.916 94.6151C16.7454 95.1982 16.7224 95.8054 16.8484 96.3966C16.9681 96.8362 17.1696 97.2569 17.4452 97.6427C18.1707 98.6844 17.5969 99.4433 17.1353 100.051C16.9648 100.26 16.8158 100.481 16.6901 100.712C16.4822 101.073 16.4075 101.479 16.4758 101.877C16.5401 102.266 16.7426 102.629 17.0561 102.919C17.1155 102.977 17.1715 103.031 17.2309 103.081C18.4015 104.064 18.8269 105.041 18.6884 106.486C18.6125 107.228 19.216 108.144 20.1261 108.665C20.456 108.876 20.8472 109.006 21.2579 109.043C21.6686 109.079 22.0833 109.02 22.4575 108.872L23.0708 109.897C22.5969 110.101 22.0723 110.207 21.5407 110.205V110.205Z" fill="black"/>
<path d="M35.753 112.165C32.8084 112.165 29.6296 110.205 29.4581 110.093C29.3255 109.999 29.2402 109.865 29.2197 109.719C29.1991 109.573 29.2448 109.426 29.3474 109.308C29.4499 109.19 29.6017 109.11 29.7718 109.083C29.9419 109.057 30.1174 109.086 30.2627 109.166C31.5817 109.984 35.42 111.837 37.4677 110.594C39.5155 109.351 38.8923 105.621 38.457 104.291C38.4102 104.142 38.4348 103.984 38.5254 103.851C38.616 103.718 38.7652 103.62 38.9401 103.581C39.115 103.541 39.3013 103.562 39.4581 103.639C39.6149 103.716 39.7292 103.842 39.776 103.991C39.8486 104.218 41.5039 109.561 38.2526 111.532C37.519 111.962 36.644 112.184 35.753 112.165V112.165Z" fill="black"/>
<path d="M65.49 108.945C65.3482 108.864 64.1083 108.105 63.96 107.046C63.9271 106.773 63.9659 106.497 64.0737 106.238C64.1814 105.979 64.3554 105.743 64.5832 105.548C65.5197 104.677 64.1842 103.411 64.1248 103.358L65.1141 102.58C65.8956 103.296 66.9937 105.005 65.5724 106.324C65.4755 106.396 65.4002 106.488 65.3526 106.59C65.305 106.692 65.2866 106.802 65.2988 106.912C65.3647 107.393 66.0605 107.886 66.2418 107.993L65.49 108.945Z" fill="black"/>
<path d="M68.25 109.163L67.4883 108.211L67.8708 108.687L67.485 108.214C67.7318 108.077 67.9176 107.874 68.0126 107.637C68.0126 107.603 68.0126 107.528 67.884 107.399C66.8222 106.419 67.6202 105.159 68.1907 104.641L69.1799 105.422C69.1799 105.422 68.3918 106.172 68.8765 106.62C69.0523 106.769 69.1863 106.95 69.2685 107.148C69.3507 107.347 69.3791 107.559 69.3514 107.769C69.2525 108.564 68.3522 109.104 68.25 109.163Z" fill="black"/>
<path d="M35.0077 101.3C34.8413 101.146 34.7523 100.942 34.7597 100.733C34.7671 100.524 34.8703 100.325 35.0473 100.18C35.1969 100.014 35.4175 99.9058 35.6609 99.878C35.9043 99.8502 36.1508 99.9053 36.3465 100.031C36.5137 100.185 36.6032 100.389 36.5958 100.598C36.5884 100.808 36.4847 101.006 36.3069 101.151C36.1574 101.317 35.9368 101.425 35.6934 101.453C35.45 101.481 35.2035 101.426 35.0077 101.3V101.3Z" fill="black"/>
<path d="M71.6959 120.121C71.7231 120.125 71.7509 120.125 71.7781 120.121H71.6959Z" fill="black"/>
<path d="M31.4432 90.2861L31.7103 90.3506C32.4292 90.5438 33.0623 90.7034 33.7647 90.5242C34.6946 90.3058 35.4134 89.5609 36.4258 89.5553C36.4851 89.5553 36.5412 89.5553 36.6006 89.5553C36.2995 89.3599 35.9308 89.2546 35.5519 89.2556V89.2556C35.0832 89.306 34.6385 89.4606 34.2626 89.7037C33.8716 89.9275 33.4468 90.1056 32.9997 90.233C32.4939 90.3591 31.9593 90.3774 31.4432 90.2861V90.2861Z" fill="black"/>
<path d="M144.571 137.197C144.57 137.592 144.698 137.98 144.941 138.317C145.178 138.65 145.521 138.92 145.93 139.096C146.441 139.311 147.027 139.362 147.579 139.239C147.927 139.167 148.253 139.031 148.532 138.838C148.809 138.645 149.034 138.404 149.191 138.13L166.338 108.021C166.465 107.8 166.544 107.562 166.572 107.318V107.318V107.105C166.572 106.633 166.385 106.174 166.041 105.803C165.7 105.435 165.222 105.177 164.686 105.069C164.506 105.033 164.321 105.015 164.135 105.016C163.775 105.016 163.419 105.084 163.093 105.215C162.595 105.419 162.192 105.759 161.949 106.181L144.802 136.296C144.691 136.49 144.617 136.698 144.581 136.912C144.57 137.007 144.567 137.102 144.571 137.197Z" fill="#D0CDE1"/>
<path d="M37.4743 107.752L37.5468 106.601C35.4826 106.508 34.9088 105.201 34.9088 105.147L33.6261 105.514C33.6426 105.601 34.467 107.615 37.4743 107.752Z" fill="black"/>
<path d="M63.96 107.046C64.1084 108.116 65.3483 108.864 65.4901 108.945L66.2518 107.993C66.0705 107.886 65.3747 107.393 65.3087 106.912C65.2966 106.802 65.315 106.692 65.3626 106.59C65.4101 106.488 65.4855 106.396 65.5824 106.324C67.0036 105.005 65.9122 103.296 65.1241 102.58L64.1348 103.358C64.1942 103.411 65.5297 104.677 64.5932 105.548C64.3636 105.742 64.1878 105.977 64.0783 106.237C63.9688 106.496 63.9284 106.772 63.96 107.046V107.046Z" fill="black"/>
<path d="M68.0127 107.637C67.9177 107.874 67.7319 108.077 67.4851 108.214L67.8709 108.687L68.2501 109.163C68.3524 109.104 69.2394 108.564 69.3581 107.763C69.3858 107.554 69.3574 107.342 69.2752 107.143C69.193 106.944 69.059 106.764 68.8833 106.615C68.3985 106.167 69.1833 105.419 69.1866 105.416L68.1974 104.635C67.6269 105.161 66.8289 106.413 67.8907 107.393C68.0259 107.528 68.016 107.603 68.0127 107.637Z" fill="black"/>
<path d="M128.794 105.46C139.913 105.46 148.927 103.546 148.927 101.186C148.927 98.8252 139.913 96.9116 128.794 96.9116C117.676 96.9116 108.662 98.8252 108.662 101.186C108.662 103.546 117.676 105.46 128.794 105.46Z" fill="#B7952C"/>
<path d="M133.086 125.521L124.761 132.626C124.728 132.654 124.672 132.634 124.672 132.595V119.777H133.086V125.521Z" fill="#FFD140"/>
<path fill-rule="evenodd" clip-rule="evenodd" d="M147.473 102.761C144.554 104.356 137.295 105.486 128.803 105.486C120.312 105.486 113.054 104.357 110.134 102.761L110.013 102.761C109.994 102.751 109.977 102.77 109.99 102.785L124.593 119.77C124.597 119.774 124.603 119.777 124.609 119.777H132.996C133.003 119.777 133.009 119.774 133.012 119.77L147.616 102.785C147.628 102.77 147.611 102.751 147.593 102.761L147.473 102.761Z" fill="#FFD140"/>
<path d="M79.2445 88.8718C85.1098 89.0619 90.0467 85.153 90.2715 80.1412C90.4963 75.1293 85.9238 70.9123 80.0585 70.7222C74.1932 70.5321 69.2563 74.441 69.0315 79.4528C68.8067 84.4647 73.3792 88.6817 79.2445 88.8718Z" fill="#A884EC"/>
<path d="M82.7706 76.937C82.7076 78.3407 81.3037 79.8147 79.6692 79.7617C78.0264 79.7085 76.767 78.1484 76.83 76.7446C76.893 75.3409 78.2733 74.3916 79.9078 74.4445C81.5509 74.4906 82.8336 75.5332 82.7706 76.937Z" fill="white"/>
<path d="M75.7345 85.0444L82.9942 85.2795C83.7575 85.3042 84.457 84.9009 84.717 84.2916L85.1537 83.2621C85.4701 82.5055 85.0424 81.6681 84.1753 81.3631C81.263 80.3458 78.2047 80.3604 75.0284 81.1521C74.1378 81.3718 73.6207 82.1573 73.8269 82.9308L74.083 83.8904C74.2614 84.5423 74.938 85.0186 75.7345 85.0444Z" fill="white"/>
<path d="M154.446 60.427C156.142 57.9314 155.119 54.7339 152.162 53.2851C149.205 51.8364 145.433 52.685 143.738 55.1806C142.042 57.6762 143.064 60.8737 146.021 62.3224C148.978 63.7712 152.75 62.9226 154.446 60.427Z" fill="#F8CB40"/>
<path d="M148.211 55.6785C149.039 56.0843 149.548 57.0913 149.075 57.7867C148.6 58.4857 147.321 58.612 146.493 58.2062C145.665 57.8004 145.466 56.9451 145.938 56.2496C146.409 55.5486 147.382 55.2727 148.211 55.6785Z" fill="white"/>
<path d="M151.195 60.9194L153.294 57.8305C153.515 57.5057 153.46 57.0932 153.164 56.8161L152.662 56.3489C152.291 56.0075 151.672 55.9675 151.254 56.2617C149.857 57.2521 149.041 58.584 148.661 60.1766C148.553 60.6226 148.887 61.0589 149.408 61.1779L150.055 61.3254C150.496 61.4237 150.965 61.2583 151.195 60.9194Z" fill="white"/>
<path d="M88.2116 64.1503C91.5703 64.558 94.6843 62.5618 95.1671 59.6918C95.6498 56.8218 93.3184 54.1648 89.9597 53.7571C86.601 53.3495 83.487 55.3456 83.0042 58.2156C82.5215 61.0857 84.8529 63.7427 88.2116 64.1503Z" fill="#A884EC"/>
<path d="M91.0805 57.4681C90.9453 58.272 90.0342 59.048 89.0983 58.9344C88.1575 58.8202 87.5435 57.8592 87.6787 57.0553C87.8139 56.2515 88.6745 55.7759 89.6105 55.8895C90.5519 55.9996 91.2158 56.6643 91.0805 57.4681Z" fill="white"/>
<path d="M86.4635 61.7714L90.6207 62.2759C91.0578 62.3289 91.4884 62.1326 91.6809 61.7956L92.0046 61.2259C92.2398 60.807 92.053 60.3038 91.576 60.0843C89.9734 59.3513 88.2141 59.2041 86.3321 59.4977C85.8046 59.5787 85.4519 60.004 85.5159 60.4592L85.5954 61.024C85.652 61.4078 86.0074 61.7161 86.4635 61.7714Z" fill="white"/>
<path d="M134.569 49.2711C137.928 49.6787 141.042 47.6826 141.525 44.8126C142.007 41.9426 139.676 39.2855 136.317 38.8779C132.959 38.4702 129.845 40.4664 129.362 43.3364C128.879 46.2064 131.21 48.8634 134.569 49.2711Z" fill="#A884EC"/>
<path d="M137.438 42.5889C137.303 43.3927 136.392 44.1687 135.456 44.0551C134.515 43.941 133.901 42.9799 134.036 42.1761C134.171 41.3722 135.032 40.8967 135.968 41.0102C136.909 41.1203 137.573 41.785 137.438 42.5889Z" fill="white"/>
<path d="M132.821 46.8922L136.978 47.3966C137.415 47.4496 137.846 47.2533 138.038 46.9163L138.362 46.3466C138.597 45.9277 138.411 45.4245 137.934 45.2051C136.331 44.4721 134.572 44.3249 132.69 44.6185C132.162 44.6995 131.809 45.1248 131.873 45.5799L131.953 46.1447C132.01 46.5286 132.365 46.8368 132.821 46.8922Z" fill="white"/>
<path d="M54.2547 57.6857C56.6954 55.6844 56.7516 52.3714 54.3801 50.286C52.0087 48.2005 48.1076 48.1323 45.6668 50.1336C43.2261 52.1349 43.1699 55.4479 45.5414 57.5334C47.9128 59.6189 51.8139 59.6871 54.2547 57.6857Z" fill="#A683E9"/>
<path d="M49.8045 51.6604C50.4687 52.2445 50.6307 53.3316 49.9506 53.8894C49.2669 54.4499 47.9967 54.2716 47.3325 53.6875C46.6683 53.1033 46.7545 52.2345 47.4347 51.6768C48.1149 51.1133 49.1403 51.0763 49.8045 51.6604Z" fill="white"/>
<path d="M50.9702 57.3972L53.9912 54.92C54.3088 54.6596 54.3907 54.2504 54.1955 53.9145L53.8647 53.3478C53.6198 52.9329 53.0373 52.7492 52.5405 52.9343C50.8753 53.5586 49.6585 54.6477 48.7761 56.0895C48.5275 56.4929 48.7063 56.9904 49.1687 57.2269L49.7425 57.5203C50.1341 57.718 50.6388 57.669 50.9702 57.3972Z" fill="white"/>
<path d="M100.946 45.6035C105.256 46.1265 109.252 43.5652 109.871 39.8825C110.491 36.1998 107.499 32.7904 103.189 32.2673C98.8795 31.7442 94.8836 34.3056 94.2642 37.9883C93.6447 41.671 96.6363 45.0804 100.946 45.6035Z" fill="#F8CB40"/>
<path d="M104.628 37.0291C104.454 38.0606 103.285 39.0563 102.084 38.9106C100.877 38.7641 100.089 37.5309 100.262 36.4995C100.436 35.468 101.54 34.8578 102.741 35.0035C103.949 35.1448 104.801 35.9977 104.628 37.0291Z" fill="white"/>
<path d="M98.7031 42.5509L104.037 43.1981C104.598 43.2662 105.151 43.0143 105.398 42.5818L105.813 41.8508C106.115 41.3133 105.875 40.6676 105.263 40.386C103.207 39.4455 100.949 39.2566 98.5345 39.6333C97.8576 39.7372 97.405 40.283 97.4871 40.8671L97.5892 41.5918C97.6618 42.0843 98.1178 42.4798 98.7031 42.5509Z" fill="white"/>
<path d="M72.968 79.2449C76.6697 76.0517 76.6032 70.899 72.8194 67.7361C69.0356 64.5733 62.9673 64.5979 59.2656 67.7911C55.5638 70.9844 55.6304 76.137 59.4142 79.2999C63.198 82.4628 69.2663 82.4381 72.968 79.2449Z" fill="#F8CB40"/>
<path d="M65.7694 70.0263C66.8292 70.9122 67.1315 72.5969 66.1 73.4868C65.0632 74.3812 63.08 74.1465 62.0202 73.2606C60.9604 72.3747 61.0541 71.021 62.0857 70.1311C63.1171 69.2323 64.7096 69.1404 65.7694 70.0263Z" fill="white"/>
<path d="M67.8482 78.9064L72.43 74.9539C72.9117 74.5383 73.0199 73.8994 72.7009 73.3837L72.1602 72.5137C71.7602 71.8769 70.8461 71.6109 70.0823 71.9152C67.5224 72.9417 65.6811 74.6756 64.3762 76.9468C64.0085 77.5822 64.3096 78.3498 65.0395 78.702L65.9452 79.1389C66.5632 79.4331 67.3456 79.34 67.8482 78.9064Z" fill="white"/>
<path d="M30.3485 35.9481C35.6183 36.1749 40.1077 32.7082 40.376 28.2052C40.6442 23.7022 36.5897 19.868 31.3199 19.6412C26.0501 19.4145 21.5606 22.8811 21.2924 27.3842C21.0242 31.8872 25.0787 35.7214 30.3485 35.9481Z" fill="#F8CB40"/>
<path d="M33.6756 25.2536C33.6005 26.5149 32.319 27.8264 30.8505 27.7633C29.3745 27.6998 28.263 26.2854 28.3381 25.0241C28.4133 23.7629 29.6666 22.9227 31.1352 22.9859C32.6116 23.043 33.7508 23.9924 33.6756 25.2536Z" fill="white"/>
<path d="M27.2439 32.4744L33.7666 32.7549C34.4524 32.7844 35.0864 32.4285 35.3282 31.8833L35.7343 30.962C36.0288 30.285 35.6553 29.5281 34.88 29.2457C32.2755 28.3035 29.5262 28.2875 26.6606 28.9689C25.8571 29.1579 25.3819 29.8591 25.5571 30.5563L25.7745 31.4214C25.9264 32.0091 26.5283 32.4437 27.2439 32.4744Z" fill="white"/>
<path d="M119.985 73.6568C127.552 72.4516 132.528 66.2331 131.099 59.7674C129.671 53.3017 122.378 49.0372 114.812 50.2425C107.245 51.4477 102.269 57.6662 103.697 64.1318C105.126 70.5975 112.418 74.862 119.985 73.6568Z" fill="#DB6AB5"/>
<path d="M120.408 57.5215C120.808 59.3324 119.518 61.5642 117.409 61.9002C115.29 62.2378 113.144 60.5533 112.744 58.7423C112.344 56.9314 113.785 55.3764 115.893 55.0405C118.011 54.6937 120.008 55.7105 120.408 57.5215Z" fill="white"/>
<path d="M114.185 69.6284L123.551 68.1364C124.536 67.9795 125.292 67.2909 125.416 66.4475L125.622 65.0229C125.768 63.9771 124.934 63.0116 123.721 62.8357C119.647 62.2537 115.741 63.0275 111.949 64.8245C110.886 65.3253 110.493 66.4577 111.022 67.3961L111.678 68.5603C112.129 69.3499 113.158 69.7921 114.185 69.6284Z" fill="white"/>
<path d="M117.089 30.9044C125.272 33.9867 134.866 30.8165 138.518 23.8236C142.169 16.8307 138.495 8.66319 130.312 5.58093C122.128 2.49867 112.534 5.66886 108.883 12.6617C105.232 19.6546 108.905 27.8222 117.089 30.9044Z" fill="#A884EC"/>
<path d="M130.021 15.6867C128.998 17.6453 126.029 19.0602 123.749 18.2014C121.457 17.3381 120.71 14.5237 121.733 12.5651C122.755 10.6065 125.342 9.92355 127.623 10.7824C129.92 11.6358 131.044 13.7281 130.021 15.6867Z" fill="white"/>
<path d="M114.661 23.7987L124.79 27.6135C125.855 28.0146 127.114 27.7786 127.888 27.0401L129.191 25.7909C130.143 24.8709 130.094 23.4793 129.068 22.6314C125.618 19.7933 121.276 18.3472 116.249 17.9456C114.841 17.8296 113.586 18.6945 113.364 19.8893L113.089 21.3717C112.908 22.3809 113.55 23.3802 114.661 23.7987Z" fill="white"/>
<path d="M180.736 91.1609C189.607 89.0233 194.745 81.1454 192.211 73.5651C189.678 65.9849 180.433 61.5728 171.562 63.7104C162.69 65.848 157.553 73.7259 160.086 81.3062C162.619 88.8864 171.865 93.2985 180.736 91.1609Z" fill="#A884EC"/>
<path d="M179.171 71.8753C179.881 73.9985 178.627 76.7801 176.155 77.3758C173.67 77.9746 170.896 76.1638 170.186 74.0406C169.477 71.9175 170.995 69.9294 173.467 69.3337C175.949 68.7242 178.462 69.7522 179.171 71.8753Z" fill="white"/>
<path d="M173.301 86.8924L184.281 84.2463C185.436 83.9681 186.25 83.0767 186.289 82.0592L186.353 80.3408C186.392 79.0799 185.274 78.0054 183.804 77.9078C178.871 77.5904 174.31 78.8749 170.018 81.369C168.813 82.0649 168.49 83.452 169.241 84.5223L170.173 85.8503C170.813 86.7505 172.097 87.1827 173.301 86.8924Z" fill="white"/>
<path d="M132.027 95.9261C137.803 97.9791 144.457 95.6422 146.889 90.7065C149.321 85.7708 146.61 80.1054 140.834 78.0524C135.058 75.9995 128.404 78.3364 125.972 83.2721C123.54 88.2078 126.251 93.8732 132.027 95.9261Z" fill="#A884EC"/>
<path d="M140.806 85.1228C140.125 86.5052 138.073 87.5318 136.463 86.9597C134.846 86.3848 134.275 84.426 134.956 83.0436C135.637 81.6612 137.434 81.1513 139.044 81.7233C140.665 82.2913 141.487 83.7404 140.806 85.1228Z" fill="white"/>
<path d="M130.206 90.9876L137.355 93.5285C138.107 93.7956 138.983 93.6148 139.511 93.0887L140.401 92.1989C141.05 91.5436 140.992 90.5711 140.26 89.991C137.799 88.0496 134.737 87.0927 131.215 86.8747C130.228 86.8113 129.366 87.4318 129.231 88.27L129.064 89.3101C128.955 90.0181 129.421 90.7088 130.206 90.9876Z" fill="white"/>
<path d="M130.771 103.461C134.55 102.551 136.739 99.1943 135.66 95.9648C134.581 92.7353 130.642 90.8556 126.862 91.7663C123.083 92.677 120.894 96.0333 121.973 99.2628C123.052 102.492 126.991 104.372 130.771 103.461Z" fill="#DB6AB5"/>
<path d="M130.104 95.2448C130.406 96.1493 129.872 97.3344 128.819 97.5882C127.761 97.8433 126.578 97.0718 126.276 96.1673C125.974 95.2628 126.621 94.4158 127.674 94.1619C128.731 93.9023 129.802 94.3403 130.104 95.2448Z" fill="white"/>
<path d="M127.603 101.643L132.281 100.515C132.773 100.397 133.12 100.017 133.137 99.5835L133.164 98.8514C133.181 98.3142 132.704 97.8565 132.078 97.8149C129.976 97.6797 128.033 98.2269 126.205 99.2895C125.691 99.586 125.554 100.177 125.874 100.633L126.271 101.199C126.543 101.582 127.09 101.766 127.603 101.643Z" fill="white"/>
<path d="M188.856 64.79C193.108 61.4479 193.345 55.793 189.385 52.1594C185.425 48.5258 178.767 48.2896 174.514 51.6317C170.262 54.9738 170.025 60.6287 173.985 64.2623C177.945 67.8959 184.603 68.1321 188.856 64.79Z" fill="#FDCF40"/>
<path d="M181.514 54.3655C182.623 55.3833 182.854 57.2444 181.669 58.1758C180.478 59.1119 178.316 58.7684 177.207 57.7507C176.098 56.7329 176.282 55.2521 177.467 54.3208C178.653 53.3795 180.405 53.3478 181.514 54.3655Z" fill="white"/>
<path d="M183.26 64.1964L188.524 60.0596C189.077 59.6247 189.234 58.9286 188.915 58.349L188.375 57.3712C187.974 56.6554 186.988 56.3239 186.131 56.6246C183.262 57.6395 181.138 59.4615 179.57 61.8963C179.128 62.5773 179.412 63.4323 180.192 63.8504L181.159 64.3689C181.819 64.7185 182.683 64.6503 183.26 64.1964Z" fill="white"/>
<path d="M151.324 27.7282C147.985 33.1056 150.444 39.7775 156.815 42.6304C163.187 45.4833 171.059 43.4369 174.398 38.0595C177.737 32.6822 175.279 26.0103 168.907 23.1574C162.536 20.3045 154.664 22.3509 151.324 27.7282Z" fill="#DB6AB5"/>
<path d="M164.92 37.3148C163.135 36.5157 161.967 34.4273 162.898 32.9288C163.833 31.4226 166.517 31.0692 168.302 31.8683C170.087 32.6674 170.588 34.4571 169.657 35.9556C168.731 37.4658 166.705 38.1139 164.92 37.3148Z" fill="white"/>
<path d="M158.132 26.4684L153.999 33.1243C153.564 33.8241 153.718 34.69 154.37 35.2541L155.473 36.2049C156.285 36.8994 157.595 36.9415 158.448 36.2926C161.301 34.1093 162.895 31.2455 163.544 27.8616C163.73 26.9141 162.985 26.0168 161.875 25.8016L160.497 25.5346C159.559 25.3575 158.585 25.7382 158.132 26.4684Z" fill="white"/>
<path d="M86.1038 43.3091C96.6108 40.7773 102.696 31.4468 99.6953 22.4689C96.6947 13.4909 85.7446 8.26526 75.2377 10.797C64.7307 13.3288 58.6456 22.6593 61.6462 31.6372C64.6468 40.6152 75.5969 45.8408 86.1038 43.3091Z" fill="#DB6AB5"/>
<path d="M84.2504 20.4674C85.0908 22.982 83.6061 26.2765 80.6781 26.9821C77.7353 27.6913 74.4489 25.5465 73.6086 23.0319C72.7682 20.5173 74.5669 18.1627 77.4949 17.457C80.4335 16.7352 83.41 17.9528 84.2504 20.4674Z" fill="white"/>
<path d="M77.298 38.2533L90.3029 35.1193C91.6702 34.7898 92.6343 33.7341 92.6812 32.5289L92.7559 30.4937C92.8028 29.0003 91.4782 27.7277 89.7372 27.6121C83.8943 27.2362 78.4928 28.7575 73.4095 31.7116C71.9826 32.5357 71.6001 34.1786 72.4895 35.4463L73.5933 37.0191C74.3511 38.0853 75.8712 38.5972 77.298 38.2533Z" fill="white"/>
</svg>
