<svg width="24" height="24" viewBox="0 0 24 24" fill="none" xmlns="http://www.w3.org/2000/svg">
<path fill-rule="evenodd" clipRule="evenodd" d="M17.4514 8.15418C16.8091 8.5834 16.0538 8.8125 15.2812 8.8125C14.2456 8.81128 13.2528 8.39934 12.5205 7.66704C11.7882 6.93474 11.3762 5.94188 11.375 4.90625C11.375 4.13367 11.6041 3.37844 12.0333 2.73606C12.4625 2.09368 13.0726 1.593 13.7864 1.29735C14.5002 1.00169 15.2856 0.924336 16.0433 1.07506C16.8011 1.22578 17.4971 1.59782 18.0434 2.14412C18.5897 2.69041 18.9617 3.38644 19.1124 4.14418C19.2632 4.90192 19.1858 5.68734 18.8902 6.40111C18.5945 7.11488 18.0938 7.72496 17.4514 8.15418ZM16.5834 2.9575C16.1979 2.69996 15.7448 2.5625 15.2812 2.5625C14.6599 2.56318 14.0641 2.81033 13.6247 3.24972C13.1853 3.68911 12.9382 4.28486 12.9375 4.90625C12.9375 5.3698 13.075 5.82294 13.3325 6.20837C13.59 6.5938 13.9561 6.8942 14.3843 7.0716C14.8126 7.24899 15.2839 7.2954 15.7385 7.20497C16.1931 7.11453 16.6108 6.89131 16.9385 6.56353C17.2663 6.23575 17.4895 5.81814 17.58 5.36349C17.6704 4.90885 17.624 4.4376 17.4466 4.00934C17.2692 3.58107 16.9688 3.21503 16.5834 2.9575ZM7.85937 13.5C8.63196 13.5 9.38719 13.2709 10.0296 12.8417C10.672 12.4125 11.1726 11.8024 11.4683 11.0886C11.7639 10.3748 11.8413 9.58942 11.6906 8.83168C11.5398 8.07394 11.1678 7.37791 10.6215 6.83162C10.0752 6.28532 9.37918 5.91328 8.62145 5.76256C7.86371 5.61184 7.07829 5.68919 6.36452 5.98485C5.65074 6.2805 5.04067 6.78118 4.61145 7.42355C4.18222 8.06593 3.95312 8.82117 3.95312 9.59375C3.95434 10.6294 4.36629 11.6222 5.09859 12.3545C5.83089 13.0868 6.82375 13.4988 7.85937 13.5ZM7.85937 7.25C8.32292 7.25 8.77606 7.38746 9.16149 7.64499C9.54692 7.90253 9.84732 8.26857 10.0247 8.69684C10.2021 9.1251 10.2485 9.59635 10.1581 10.051C10.0677 10.5056 9.84444 10.9233 9.51666 11.251C9.18888 11.5788 8.77126 11.802 8.31662 11.8925C7.86197 11.9829 7.39072 11.9365 6.96246 11.7591C6.5342 11.5817 6.16815 11.2813 5.91062 10.8959C5.65308 10.5104 5.51562 10.0573 5.51562 9.59375C5.51631 8.97236 5.76346 8.37661 6.20285 7.93722C6.64224 7.49783 7.23798 7.25068 7.85937 7.25ZM20.0442 9.07866C20.1374 9.12478 20.2208 9.18943 20.2895 9.26884C21.4051 10.539 22.0153 12.1904 22 13.8978C22 15.6661 19.1218 17 15.7812 17C15.574 17 15.3753 16.9158 15.2288 16.766C15.0823 16.6161 15 16.4128 15 16.2009C15 15.989 15.0823 15.7857 15.2288 15.6359C15.3753 15.486 15.574 15.4018 15.7812 15.4018C18.4466 15.4018 20.4375 14.4277 20.4375 13.8978C20.4523 12.589 19.9877 11.3219 19.1352 10.3457C19.0641 10.2685 19.0089 10.1776 18.9725 10.0784C18.9362 9.97914 18.9195 9.87349 18.9234 9.76758C18.9274 9.66168 18.9519 9.55763 18.9955 9.46151C19.0392 9.36539 19.1011 9.2791 19.1776 9.20768C19.2542 9.13626 19.3439 9.08113 19.4415 9.0455C19.5391 9.00987 19.6426 8.99446 19.7461 9.00015C19.8495 9.00584 19.9509 9.03253 20.0442 9.07866ZM10.933 14.4606C10.9776 14.3655 11.0405 14.2802 11.1181 14.2094C11.1957 14.1385 11.2864 14.0836 11.3852 14.0478C11.484 14.012 11.5889 13.996 11.6938 14.0008C11.7988 14.0056 11.9018 14.0311 11.9969 14.0757C12.092 14.1204 12.1774 14.1833 12.2482 14.261C13.3907 15.5326 14.0156 17.1859 13.9997 18.8953C13.9997 20.6656 11.4205 22 7.9999 22C4.5793 22 2.0001 20.6656 2.00026 18.8952C1.98544 17.1975 2.60118 15.5548 3.7282 14.2851C3.87036 14.1275 4.06928 14.0329 4.28121 14.022C4.49314 14.0111 4.70072 14.0848 4.85829 14.227C5.01585 14.3691 5.11049 14.5681 5.12139 14.78C5.13229 14.9919 5.05856 15.1995 4.9164 15.3571C4.06055 16.336 3.59235 17.5943 3.60005 18.8946C3.60005 19.4251 5.27071 20.4 7.9999 20.4C10.7291 20.4 12.3998 19.4258 12.3998 18.8953C12.415 17.5849 11.9393 16.3163 11.0662 15.3391C10.9954 15.2615 10.9406 15.1708 10.9049 15.072C10.8692 14.9732 10.8533 14.8684 10.8581 14.7635C10.8629 14.6586 10.8884 14.5556 10.933 14.4606Z" fill="#8B97AE"/>
</svg>
