<svg width="147" height="169" viewBox="0 0 147 169" fill="none" xmlns="http://www.w3.org/2000/svg">
<g id="ilustration">
<g id="man">
<g id="Man">
<g id="handbh">
<path id="Vector" d="M107.203 63.8692C94.597 70.3455 72.3467 97.2987 64.9526 99.3408C57.6754 101.35 37.6306 85.6065 30.1472 78.1267C27.2979 80.5169 23.773 82.3061 23.773 82.3061C27.3489 87.6271 52.6185 122.805 64.9802 121.798C77.342 120.79 91.8986 108.017 102.909 100.943C113.919 93.87 107.203 63.8692 107.203 63.8692Z" fill="#ED9F00"/>
<path id="Vector_2" d="M30.147 78.1225C25.5193 75.2384 26.809 70.3861 23.1608 66.6812C19.5126 62.9763 19.0325 62.4026 18.378 63.375C17.7236 64.3474 22.0092 69.2406 20.9277 69.118C19.0686 68.908 12.3501 57.8381 10.4251 58.2698C9.09717 58.5635 13.6909 65.314 16.2087 68.1884C12.8091 67.605 8.38537 56.4047 6.88318 57.6378C5.87605 58.4643 10.4952 67.885 14.0499 69.8687C10.8628 69.3961 6.61334 59.8412 4.95817 60.4675C3.61746 60.9712 8.23028 69.4837 11.4068 71.3974C8.60423 70.4502 6.05028 65.9752 5.15789 66.7298C4.06153 67.6614 9.60498 74.2874 15.2015 78.634C19.6253 82.0725 20.609 80.5186 23.7706 82.2845C27.4804 80.9075 30.147 78.1225 30.147 78.1225Z" fill="#F0CCC0"/>
<path id="Vector_3" d="M22.133 83.0539C22.133 83.0539 30.9103 77.3497 31.4267 76.9005C33.1838 78.1315 36.1585 81.4241 36.3518 81.4319C34.8964 82.7058 26.3336 89.4407 25.9916 89.4271C25.2755 88.6822 22.133 83.0539 22.133 83.0539Z" fill="#E19100"/>
</g>
<path id="Vector_4" d="M139.166 168.502L70.8835 158.332C76.6798 136.006 87.4289 78.6218 100.997 67.6646C117.054 54.7005 126.354 57.8569 137.348 71.8304C152.176 90.6758 145.228 150.067 139.166 168.502Z" fill="#FCBA06"/>
<path id="Vector_5" d="M83.6833 160.27C88.2621 137.553 91.0944 124.997 93.1639 115.829C94.3134 110.734 95.2228 106.708 96.1215 102.352C99.7124 84.93 110.895 68.2045 114.953 64.1651L113.077 62.5859C110.986 64.6669 107.075 69.811 102.929 77.4658C99.7825 83.275 95.6116 92.2347 93.6165 101.92C92.722 106.255 91.8147 110.273 90.6673 115.359C88.5957 124.536 85.7592 137.1 81.1761 159.854L83.6833 160.27Z" fill="#ED9F00"/>
<path id="Vector_6" d="M131.465 46.9189C130.524 49.8789 128.327 61.3378 130.541 65.0407C128.276 66.1415 117.289 66.5285 109.855 62.4269C111.903 60.7544 114.837 59.8578 113.267 56.1101C111.567 52.026 106.646 56.4407 104.556 49.8575C102.108 42.1813 103.493 27.9647 107.86 24.5982C112.753 20.8311 121.923 16.7042 131.969 24.324C140.175 30.5435 133.38 40.9074 131.465 46.9189Z" fill="#F8D8D0"/>
<path id="Vector_7" d="M124.32 38.7793C121.794 38.4371 124.157 32.5754 122.561 30.8581C120.672 28.8277 113.527 26.7506 106.298 26.4122C99.0699 26.0738 96.1505 16.9332 101.312 14.086C106.473 11.2387 109.747 16.7076 113.316 16.1786C117.47 15.5601 117.566 11.052 123.334 12.3862C128.672 13.6173 125.395 17.8628 128.691 19.1931C132.091 20.5642 138.061 17.0343 141.488 22.7657C144.038 27.0171 138.807 28.5029 138.577 32.7776C138.433 35.4479 144.189 44.2521 135.915 46.3914C127.641 48.5307 130.695 41.5857 131.638 38.6802C132.581 35.7746 131.447 33.5886 129.832 33.2872C128.217 32.9857 127.932 39.2636 124.32 38.7793Z" fill="#20196F"/>
<path id="Vector_8" d="M130.019 62.128C127.979 62.7114 115.877 62.8495 112.214 60.0859C111.206 60.8775 110.427 61.6126 109.855 62.4353C112.405 64.4034 122.689 67.6202 130.701 65.2397C130.44 64.0009 130.019 62.128 130.019 62.128Z" fill="#ED9F00"/>
</g>
<g id="hand">
<path id="Vector_9" d="M87.939 41.5127C88.8293 41.7966 88.8038 43.9981 87.8795 46.4311C86.9553 48.8641 85.4828 50.6047 84.5904 50.3208L79.5399 48.7124L82.8885 39.9043L87.939 41.5127Z" fill="#362E94"/>
<path id="Vector_10" d="M57.206 23.8996L82.3395 31.9103C84.6449 32.6435 84.5769 38.3282 82.1866 44.6216C79.7962 50.9151 75.9908 55.4096 73.6876 54.6764L48.5519 46.6734C46.2487 45.9383 46.3167 40.2555 48.707 33.9601C51.0973 27.6647 54.9006 23.1722 57.206 23.8996Z" fill="#5652CC"/>
<path id="Vector_11" d="M54.4431 27.2666C55.9814 27.7567 55.9304 31.5452 54.3411 35.748C52.7518 39.9507 50.2085 42.9438 48.6702 42.4556L5.32548 45.8513L22.0769 0.503906L54.4431 27.2666Z" fill="#807DFB"/>
<path id="Vector_12" d="M21.0136 25.6239C25.7858 13.0643 25.9239 1.70261 21.3217 0.22844C16.7195 -1.24573 9.11509 7.75295 4.34292 20.3145C-0.429253 32.8761 -0.569489 44.2358 4.03483 45.71C8.63914 47.1842 16.2393 38.1816 21.0136 25.6239Z" fill="#5652CC"/>
<path id="Vector_13" d="M23.1665 18.899C22.5726 21.1704 21.8542 23.4131 21.0141 25.6184C20.1776 27.8244 19.2203 29.9904 18.1457 32.1083C16.3251 31.435 14.857 30.1467 14.0455 28.51C13.234 26.8733 13.1413 25.0136 13.7865 23.316C14.4317 21.6185 15.7655 20.2131 17.5116 19.3908C19.2578 18.5686 21.2825 18.3925 23.1665 18.899V18.899Z" fill="#FCBA06"/>
<path id="Vector_14" d="M76.959 41.2472C78.7994 35.5956 78.6889 30.7452 76.5744 30.0723L78.3935 30.6557C80.5186 31.3286 80.6185 36.179 78.776 41.8287L76.959 41.2472Z" fill="#362E94"/>
<path id="Vector_15" d="M73.0329 39.9992C74.8733 34.3475 74.7649 29.4971 72.6504 28.8242L74.4674 29.4077C76.5925 30.0806 76.6924 34.931 74.852 40.5826L73.0329 39.9992Z" fill="#362E94"/>
<path id="Vector_16" d="M69.1058 38.7492C70.9484 33.1092 70.8379 28.2471 68.7233 27.5742L70.5425 28.1577C72.657 28.8306 72.7675 33.681 70.925 39.3326L69.1058 38.7492Z" fill="#362E94"/>
<path id="Vector_17" d="M65.182 37.5011C67.0223 31.8495 66.914 26.9991 64.7994 26.3262L66.6164 26.9096C68.7416 27.5825 68.8436 32.4349 67.0011 38.0846L65.182 37.5011Z" fill="#362E94"/>
<path id="Vector_18" d="M69.1077 53.2147C67.529 57.3689 60.1306 71.393 55.1269 74.565L49.8618 72.8885C48.9779 72.6065 48.3277 71.9978 49.3454 70.9126C50.3632 69.8274 56.1574 58.7322 58.9684 49.9863L69.1077 53.2147Z" fill="#362E94"/>
<path id="Vector_19" d="M63.7855 72.3951C63.7855 72.3951 53.4763 69.155 53.1618 64.0673C52.8091 58.3087 54.2603 53.5653 55.2292 53.2269C57.5388 52.4237 62.7232 62.5951 65.0413 61.2843C65.4662 60.4402 66.3034 59.1878 66.7283 58.2951C67.9607 59.1975 70.6952 60.6503 71.1456 65.8177C71.3581 68.3362 75.3377 73.0602 79.1602 85.1725L73.0855 90.6842C65.4662 82.1697 63.7855 72.3951 63.7855 72.3951Z" fill="#F0CCC0"/>
<path id="Vector_20" d="M74.8407 71.498C77.6283 79.641 90.3258 104.103 92.238 106.17C102.05 96.0125 120.072 79.6527 127.787 74.5689C135.175 69.7069 160.755 82.7663 118.651 113.125C108.388 120.515 91.3456 134.405 82.0372 128.894C77.2437 124.498 64.712 82.6788 64.0895 75.0221L74.8407 71.498Z" fill="#FFD03E"/>
<path id="Vector_21" d="M62.2365 75.3487C62.2365 75.3487 74.7194 71.4027 75.4949 71.0351C77.1012 73.0383 79.3641 77.8556 79.5872 77.9256C77.3944 78.9641 64.7798 84.1937 64.3825 84.0693C63.8173 82.9646 62.2365 75.3487 62.2365 75.3487Z" fill="#FCBA06"/>
</g>
</g>
</g>
</svg>
