<svg width="24" height="24" viewBox="0 0 24 24" fill="none" xmlns="http://www.w3.org/2000/svg">
<mask id="mask0_2165_176" style="mask-type:alpha" maskUnits="userSpaceOnUse" x="0" y="0" width="24" height="24">
<circle cx="12" cy="12" r="11.5" fill="#C4C4C4" stroke="#8B97AE"/>
</mask>
<g mask="url(#mask0_2165_176)">
<circle cx="12" cy="12" r="11" stroke="#8B97AE" stroke-width="2"/>
<path fill-rule="evenodd" clipRule="evenodd" d="M14.5956 10.657C14.5956 11.3271 14.3165 12.0413 13.8401 12.5835C13.3671 13.1218 12.7939 13.392 12.2514 13.392C11.709 13.392 11.1357 13.1218 10.6627 12.5835C10.1863 12.0413 9.90719 11.3271 9.90719 10.657C9.90719 9.36236 10.9567 8.31281 12.2514 8.31281C13.5461 8.31281 14.5956 9.36236 14.5956 10.657ZM16.1584 10.657C16.1584 12.8148 14.4092 14.9548 12.2514 14.9548C10.0936 14.9548 8.34437 12.8148 8.34437 10.657C8.34437 8.49924 10.0936 6.75 12.2514 6.75C14.4092 6.75 16.1584 8.49924 16.1584 10.657ZM7.56281 20.8153C7.56281 19.0891 8.9622 17.6897 10.6884 17.6897H13.8141C15.5403 17.6897 16.9397 19.0891 16.9397 20.8153V22.3781H18.5025V20.8153C18.5025 18.226 16.4034 16.1269 13.8141 16.1269H10.6884C8.09908 16.1269 6 18.226 6 20.8153V22.3781H7.56281V20.8153Z" fill="#8B97AE"/>
</g>
</svg>
