<svg width="24" height="24" viewBox="0 0 24 24" fill="none" xmlns="http://www.w3.org/2000/svg">
<path d="M15.253 2C15.8064 2.00002 16.3405 2.20401 16.753 2.57297C17.1655 2.94194 17.4275 3.44999 17.489 4H18.757C19.196 4.00027 19.6189 4.16553 19.9418 4.46302C20.2646 4.7605 20.4639 5.16847 20.5 5.606L20.506 5.75V8.75C20.5061 9.58014 20.1884 10.3788 19.6183 10.9822C19.0482 11.5856 18.2688 11.948 17.44 11.995L17.23 12.001C16.8967 13.04 16.2751 13.9629 15.4375 14.6623C14.5999 15.3616 13.5808 15.8085 12.499 15.951V17.5H14.252C15.082 17.5002 15.8804 17.8179 16.4836 18.388C17.0868 18.9581 17.449 19.7374 17.496 20.566L17.502 20.75V21.25C17.502 21.4314 17.4362 21.6066 17.3169 21.7432C17.1975 21.8798 17.0327 21.9686 16.853 21.993L16.752 22H6.75C6.56859 22.0002 6.39324 21.9347 6.25644 21.8156C6.11964 21.6964 6.03067 21.5317 6.006 21.352L6 21.25V20.75C5.99993 19.92 6.3174 19.1215 6.8873 18.5181C7.45721 17.9147 8.23637 17.5522 9.06499 17.505L9.25 17.5H11V15.951C9.91854 15.8082 8.8999 15.3611 8.06269 14.6618C7.22547 13.9625 6.60413 13.0397 6.271 12.001L6.245 12C5.38304 12 4.55639 11.6576 3.9469 11.0481C3.3374 10.4386 2.995 9.61195 2.995 8.75V5.75C2.995 4.784 3.779 4 4.745 4H6.013C6.07451 3.44982 6.3367 2.94163 6.74941 2.57264C7.16212 2.20365 7.69639 1.99977 8.25 2H15.253ZM14.253 19H9.25C8.85491 18.9998 8.47138 19.1333 8.16181 19.3788C7.85224 19.6243 7.63485 19.9673 7.545 20.352L7.517 20.5H15.985C15.9286 20.1096 15.7419 19.7497 15.4553 19.4787C15.1687 19.2077 14.7989 19.0415 14.406 19.007L14.253 19ZM15.253 3.5H8.25C8.05108 3.5 7.86032 3.57902 7.71967 3.71967C7.57901 3.86032 7.5 4.05109 7.5 4.25V10.248C7.51712 11.3643 7.97257 12.429 8.76802 13.2124C9.56347 13.9957 10.6351 14.4348 11.7515 14.4348C12.8679 14.4348 13.9395 13.9957 14.735 13.2124C15.5304 12.429 15.9859 11.3643 16.003 10.248V4.25C16.003 4.05109 15.924 3.86032 15.7833 3.71967C15.6427 3.57902 15.4519 3.5 15.253 3.5ZM18.757 5.5H17.503V10.483C17.8941 10.4274 18.2549 10.2411 18.5267 9.95443C18.7985 9.66775 18.9653 9.29753 19 8.904L19.007 8.75V5.75C19.0069 5.69368 18.9878 5.63904 18.9528 5.59493C18.9177 5.55083 18.8688 5.51984 18.814 5.507L18.757 5.5ZM6 5.5H4.745C4.67869 5.5 4.6151 5.52634 4.56822 5.57322C4.52133 5.62011 4.495 5.6837 4.495 5.75V8.75C4.49494 9.17172 4.64718 9.57929 4.9237 9.8977C5.20022 10.2161 5.58242 10.424 6 10.483V5.5Z" fill="#8B97AE"/>
</svg>
