<svg width="259" height="217" viewBox="0 0 259 217" fill="none" xmlns="http://www.w3.org/2000/svg">
<path d="M229.46 59.5298C229.46 59.5298 241.613 67.2307 238.826 86.5579C238.568 88.3581 236.503 89.1796 235.133 88.0322L226.412 80.7229C225.72 80.1435 225.154 79.4212 224.749 78.6025C224.344 77.7838 224.109 76.8867 224.06 75.9688L223.55 66.4393L229.46 59.5298Z" fill="white"/>
<path d="M204.34 49.2729C204.34 49.2729 190.373 46.3066 179.594 62.3709C178.59 63.8673 179.551 65.9233 181.31 66.0539L192.515 66.8825C193.404 66.9482 194.295 66.8214 195.134 66.5103C195.972 66.1992 196.737 65.7107 197.382 65.0761L204.071 58.4862L204.34 49.2729Z" fill="white"/>
<path d="M206.069 19.8194C214.923 2.57752 237.419 0.797728 237.438 0.82526C237.467 0.82526 252.693 18.0086 247.722 36.834C243.213 53.9098 226.9 70.3764 223.738 73.4466C223.394 73.777 222.831 74.261 222.479 73.944C215.634 67.7876 208.031 64.9172 199.85 64.7076C199.398 64.696 199.32 63.9509 199.292 63.4846C199.024 59.0725 198.024 35.4849 206.069 19.8194Z" fill="#FFD03E"/>
<path d="M232.236 14.3904C226.158 11.9037 219.056 10.1585 213.318 10.702C222.216 3.05358 233.841 1.22317 236.754 0.886569C236.966 0.861992 237.18 0.891574 237.379 0.972719C237.577 1.05386 237.754 1.18409 237.892 1.35194C239.793 3.65394 247.057 13.1985 248.475 25.0647C245.191 21.0415 238.314 16.8727 232.236 14.3904Z" fill="white"/>
<path d="M238.885 39.8542C241.675 32.5779 237.591 24.0874 229.763 20.8901C221.936 17.6929 213.329 20.9996 210.539 28.2759C207.75 35.5522 211.834 44.0428 219.661 47.24C227.489 50.4373 236.096 47.1306 238.885 39.8542Z" fill="url(#paint0_linear_2013_2041)"/>
<g style="mix-blend-mode:multiply">
<path d="M220.144 37.3351C224.202 29.5116 229.987 28.6963 234.698 24.0053C239.142 28.0809 240.992 34.3075 238.873 39.8395C236.084 47.1159 227.478 50.4232 219.65 47.226C219.018 46.9682 218.403 46.6716 217.806 46.3379C217.918 43.6078 218.368 40.7588 220.144 37.3351Z" fill="white"/>
</g>
<path d="M236.028 38.6867C238.255 32.8767 234.994 26.0972 228.744 23.5442C222.494 20.9913 215.622 23.6317 213.395 29.4417C211.167 35.2517 214.428 42.0312 220.678 44.5842C226.928 47.1371 233.801 44.4967 236.028 38.6867Z" fill="#212C42"/>
<path d="M222.914 74.1777C223.675 72.1924 219.015 68.4272 212.504 65.768C205.994 63.1088 200.099 62.5624 199.338 64.5478C198.577 66.5331 203.238 70.2983 209.748 72.9575C216.258 75.6167 222.153 76.1631 222.914 74.1777Z" fill="#FDB420"/>
<path d="M209.308 66.5762L214.367 68.642C215.683 69.1796 216.814 70.1101 217.614 71.3146C218.415 72.519 218.849 73.9426 218.861 75.4032L218.885 78.2381C218.887 78.4791 218.831 78.7169 218.724 78.9307C218.616 79.1444 218.459 79.3276 218.266 79.464C218.074 79.6004 217.852 79.6859 217.62 79.7129C217.388 79.74 217.153 79.7078 216.936 79.6191L200.158 72.7673C199.941 72.6787 199.748 72.5364 199.597 72.3529C199.445 72.1694 199.34 71.9504 199.29 71.7151C199.24 71.4797 199.247 71.2353 199.31 71.0033C199.372 70.7713 199.49 70.5588 199.651 70.3845L201.544 68.3329C202.521 67.2752 203.782 66.5429 205.166 66.2299C206.549 65.917 207.992 66.0375 209.308 66.5762V66.5762Z" fill="white"/>
<path d="M218.548 79.4846C219.267 77.611 215.494 74.3132 210.121 72.1187C204.748 69.9242 199.811 69.6641 199.093 71.5376C198.374 73.4112 202.147 76.709 207.52 78.9035C212.892 81.098 217.83 81.3582 218.548 79.4846Z" fill="#A2B3FE"/>
<path d="M216.212 78.5309C216.758 77.1071 213.891 74.6007 209.808 72.9329C205.724 71.265 201.972 71.0673 201.426 72.4912C200.88 73.915 203.748 76.4214 207.831 78.0892C211.914 79.7571 215.667 79.9548 216.212 78.5309Z" fill="#212C42"/>
<path d="M241.227 181.79C241.247 181.831 241.267 181.875 241.284 181.916C242.786 185.163 243.467 188.75 243.265 192.342C243.062 195.933 241.982 199.414 240.125 202.459C238.268 205.504 235.695 208.015 232.645 209.757C229.595 211.498 226.167 212.415 222.681 212.421C222.681 212.421 222.681 212.421 222.681 212.421C218.987 212.431 215.358 211.419 212.172 209.49C208.985 207.561 206.358 204.786 204.563 201.454C202.768 198.121 201.871 194.353 201.966 190.541C202.06 186.73 203.143 183.014 205.101 179.781C207.058 176.547 209.82 173.915 213.098 172.157C216.376 170.399 220.05 169.579 223.739 169.784C227.428 169.99 230.996 171.211 234.072 173.322C237.148 175.434 239.619 178.357 241.229 181.789L241.227 181.79Z" fill="#FFD03E"/>
<path opacity="0.4" d="M241.228 181.79C241.248 181.831 241.268 181.875 241.285 181.916C240.778 182.386 240.24 182.82 239.676 183.215C233.179 187.844 227.652 186.507 222.145 194.322C217.452 200.985 211.431 206.158 206.634 204.577C204.291 201.597 202.765 198.024 202.214 194.229C205.205 195.14 210.9 196.158 214.452 192.281C219.44 186.832 220.346 182.69 229.242 180.339C234.972 178.822 237.23 178.208 238.144 176.995C239.377 178.442 240.415 180.055 241.228 181.79Z" fill="white"/>
<path opacity="0.4" d="M242.102 198.256C240.675 202.396 238.043 205.979 234.566 208.515C231.09 211.051 226.939 212.417 222.682 212.424C223.341 212.028 223.942 211.536 224.465 210.963C229.454 205.515 230.359 201.372 239.255 199.021C240.319 198.736 241.265 198.486 242.102 198.256Z" fill="white"/>
<path opacity="0.4" d="M229.307 170.924C228.091 172.184 226.087 173.299 223.032 173.864C215.049 175.337 212.066 181.573 205.76 183.785C204.695 184.158 203.836 184.232 203.144 184.093C204.936 178.776 208.693 174.407 213.595 171.94C218.497 169.473 224.145 169.107 229.307 170.924V170.924Z" fill="white"/>
<path d="M232.505 172.392C232.629 172.459 232.75 172.528 232.872 172.599C233.182 172.777 233.478 172.963 233.776 173.16C239.999 171.933 244.539 172.45 245.726 174.971C246.706 177.052 245.226 180.154 241.982 183.593C238.045 187.756 231.513 192.42 223.635 196.37C217.043 199.677 210.643 201.912 205.444 202.907C199.318 204.091 194.854 203.555 193.68 201.059C192.301 198.129 195.793 193.188 202.211 188.127C202.239 187.921 202.272 187.711 202.31 187.506C194.8 192.749 189.359 198.116 187.122 202.494C185.955 204.782 185.664 206.799 186.412 208.389C188.529 212.889 198.416 212.751 211.04 208.761C216.236 207.116 221.903 204.821 227.679 201.925C233.496 199.009 238.782 195.809 243.267 192.583C254.052 184.833 260.224 176.93 258.115 172.446C255.946 167.827 245.598 168.088 232.505 172.392Z" fill="white"/>
<path d="M155.208 47.3119C155.92 44.1994 154.052 41.0808 151.037 40.3462C148.022 39.6116 145 41.5392 144.289 44.6516C143.577 47.7641 145.444 50.8827 148.46 51.6174C151.475 52.352 154.497 50.4243 155.208 47.3119Z" fill="url(#paint1_linear_2013_2041)"/>
<path d="M33.8347 76.866C35.4003 76.866 36.6694 75.556 36.6694 73.94C36.6694 72.3241 35.4003 71.0141 33.8347 71.0141C32.2691 71.0141 31 72.3241 31 73.94C31 75.556 32.2691 76.866 33.8347 76.866Z" fill="#FFD03E"/>
<path d="M51.7063 44.6031C53.7533 44.6031 55.4127 42.8903 55.4127 40.7774C55.4127 38.6645 53.7533 36.9517 51.7063 36.9517C49.6594 36.9517 48 38.6645 48 40.7774C48 42.8903 49.6594 44.6031 51.7063 44.6031Z" fill="white"/>
<path opacity="0.6" d="M-36.7041 195.158C-41.8591 183.751 -10.359 157.23 -4.35572 147.457C13.3555 118.624 42.5868 152.39 81.9982 122.316C104.976 104.781 104.442 84.8836 126.532 80.4064C144.578 76.7471 149.764 89.0548 171.501 83.7745C188.516 79.6454 200.709 68.3746 209.957 75.3236C212.7 77.3874 214.001 80.1634 214.524 81.3119C220.94 95.4024 206.845 115.506 204.385 118.9C187.328 142.433 165.057 142.66 156.032 154.803C143.09 172.227 169.058 198.69 170.16 223.534C170.952 241.281 171.813 239.431 157.935 247.064C140.133 256.854 76.0468 306.408 33.3865 290.46C-23.4062 269.238 -25.8841 219.1 -36.7041 195.158Z" fill="#D752AA"/>
<path d="M98.935 62.4273C98.935 62.4273 90.6462 54.4206 80.0579 57.119C71.2629 59.375 71.0055 62.6573 63.755 63.9224C56.5045 65.1876 53.1582 72.1591 52.2744 81.4486C51.3906 90.7381 50.7385 95.489 39.7555 101.381C28.7725 107.273 26.3528 115.66 21.5134 127.436C16.674 139.211 1.73543 139.22 -0.898778 153.721C-3.53298 168.221 0.637135 188.384 28.5494 186.34C56.4617 184.296 55.4577 193.117 76.8488 195.382C98.2399 197.647 117.091 170.15 117.752 162.462C118.413 154.774 128.049 147.51 115.873 128.321C110.038 119.111 106.589 112.741 107.292 102.372C107.996 92.0032 108.674 73.6454 98.935 62.4273Z" fill="#20196F"/>
<path d="M87.7294 160.533C69.2814 160.533 48.7998 134.452 48.7998 134.452C48.7998 134.452 62.7688 130.426 67.0677 123.649C71.3665 116.872 71.4351 108.954 70.5942 98.1077L94.9456 104.681C94.9456 104.681 94.7826 106.397 94.6195 108.954C94.3964 112.316 94.1648 117.147 94.2678 121.473C94.3879 126.206 94.9027 130.32 96.2841 131.337C99.8879 133.912 106.152 139.096 107.696 144.086C109.241 149.076 106.186 160.533 87.7294 160.533Z" fill="#F8D8D0"/>
<g style="mix-blend-mode:multiply" opacity="0.5">
<path d="M94.2415 121.473C89.4236 118.569 85.5982 114.195 83.2928 108.954H94.5933C94.3959 112.316 94.1643 117.147 94.2415 121.473Z" fill="#CC7466"/>
</g>
<path d="M153.052 140.282C146.839 150.093 152.992 163.417 147.243 171.3C144.278 165.69 142.314 159.577 141.442 153.252C140.318 143.573 153.052 140.282 153.052 140.282Z" fill="#5D4726"/>
<path d="M150.623 140.282L162.181 140.547C155.317 131.7 140.781 100.266 137.238 96.1171C135.522 94.0999 130.914 93.4629 126.409 91.0565C121.664 88.5616 116.67 87.1991 117.992 83.7134C118.79 81.5901 125.199 83.7134 125.199 83.7134C125.199 83.7134 128.898 79.9356 124.925 76.9719C119.124 72.6633 115.606 69.5668 117.065 66.5499C119.013 62.4537 129.55 67.5939 134.157 73.1322C138.765 78.6705 144.866 88.0219 147.44 91.0565C150.014 94.0911 175.181 126.693 177.472 130.453C183.298 139.831 186.395 148.014 179.188 156.056C171.723 164.408 140.936 163.187 140.936 163.187L140.078 141.007L150.623 140.282Z" fill="#F8D8D0"/>
<path d="M20.4502 197.487C27.6921 204.494 37.3194 208.104 48.8086 203.902C47.8912 200.987 46.3362 198.328 44.2637 196.131C42.1912 193.935 39.6568 192.259 36.856 191.232C27.3146 187.791 20.4502 197.487 20.4502 197.487Z" fill="#5D4726"/>
<path d="M59.6975 129.878C59.6975 129.878 44.4243 132.673 36.1613 141.627C28.8422 149.589 28.3273 158.976 26.7228 168.248C25.1182 177.52 20.2617 191.303 20.4934 197.443C26.7228 196.966 29.9319 198.151 33.8617 199.337C37.7916 200.522 43.7807 205.998 48.8518 203.857C48.8518 215.031 47.2129 216.137 49.0749 224.984C50.9369 233.831 45.3424 244.581 44.6045 263.797C43.8666 283.013 41.2495 303.759 41.2495 303.759H127.337C127.337 303.759 128.453 274.944 125.098 261.488C121.743 248.031 117.006 209.988 117.942 204.22C118.877 198.452 121.992 191.834 121.992 180.094C121.992 173.167 119.512 165.417 119.512 165.417C124.918 167.912 132.554 167.717 137.025 169.062C140.385 170.017 143.798 170.767 147.244 171.309C148.634 153.34 149.321 144.13 153.053 140.291C135.72 139.141 129.577 137.637 122.489 134.717C115.402 131.798 101.038 130.683 96.2932 131.355C98.0093 137.433 100.129 143.945 98.0779 147.404C96.0272 150.863 92.6722 157.012 85.2072 153.933C77.7422 150.854 76.4294 145.732 71.0238 144.387C66.9051 143.361 59.3886 133.408 59.6975 129.878Z" fill="#FFD03E"/>
<g style="mix-blend-mode:multiply" opacity="0.5">
<path d="M48.8435 203.902C50.1478 194.559 52.2757 189.87 54.601 180.775C57.8701 192.781 51.2718 206.432 51.8638 217.049C52.2414 223.772 57.1151 226.444 58.7282 233.088C60.7789 241.67 68.939 245.041 76.2838 250.906C73.4695 249.898 65.7899 245.687 59.612 244.068C53.743 242.537 49.221 243.351 51.4949 251.473C54.1805 261.063 36.9081 267.265 36.4704 263.116C35.6038 254.923 48.8435 203.902 48.8435 203.902Z" fill="#FCBA06"/>
</g>
<path d="M60.5629 299.274C60.5206 300.831 60.1976 302.367 59.6104 303.803C57.7142 308.775 53.381 313.535 50.4379 313.535C47.4948 313.535 46.4566 308.607 45.6243 303.803C45.3669 302.299 45.1352 300.813 44.8692 299.477C44.3887 297.053 43.2389 296.027 42.2951 294.328C41.0595 292.081 40.2014 288.666 41.7802 279.288C42.2264 276.634 27.8198 242.581 26.8073 233.849C26.0436 227.249 27.0818 207.149 27.6653 197.744C29.7699 198.16 31.8475 198.709 33.8862 199.39C37.8074 200.584 43.7966 206.051 48.8677 203.91C48.8677 203.91 43.2217 226.028 44.0283 230.328C44.3543 232.097 45.4698 238.6 46.7569 245.97C48.6102 256.586 50.8412 269.052 51.6048 271.432C53.2179 275.94 55.3344 280.239 57.9115 284.242C59.9193 287.348 60.5972 293.213 60.5629 299.274Z" fill="#F8D8D0"/>
<path d="M94.1903 64.577C100.566 65.8333 108.297 80.3249 109.223 93.3125C109.79 101.275 106.649 108.68 102.977 110.741C94.3962 115.528 76.995 107.202 72.3101 101.806C68.9893 97.9657 66.6332 93.3441 65.4484 88.3464C64.2635 83.3487 64.2862 78.1276 65.5143 73.1411C68.6548 60.1446 83.9452 62.5599 94.1903 64.577Z" fill="#F8D8D0"/>
<path d="M105.198 91.0565C102.444 97.0991 98.0335 96.6302 92.6621 92.1978C97.3041 92.4101 101.594 92.1801 105.198 91.0565Z" fill="white"/>
<path d="M92.9808 58.7379C104.745 61.2947 113.119 77.8388 105.199 79.2278C100.124 80.2168 95.0038 80.9372 89.8574 81.3865C85.9791 81.5988 84.2286 83.4037 81.3456 79.9179L76.4033 73.9196C77.0092 78.0245 77.413 82.1584 77.6131 86.3055C78.025 95.3827 69.6504 94.5333 69.6504 94.5333C69.6504 94.5333 59.3539 89.6409 60.2119 78.7058C61.07 67.7708 67.8399 64.807 69.2471 64.0639C77.1841 59.8349 84.3745 56.8623 92.9808 58.7379Z" fill="#20196F"/>
<path d="M101.775 74.5213C101.775 74.5213 90.8864 79.3695 84.82 84.4566C75.5446 92.242 64.8876 93.9318 50.3008 91.5343C51.2122 89.1261 51.7899 86.5975 52.0169 84.0231C66.6037 86.3941 74.043 84.2443 83.327 76.4588C89.3934 71.3717 102.324 65.568 102.324 65.568L101.775 74.5213Z" fill="#222221"/>
<path d="M97.6729 76.326C97.6729 76.326 88.5776 70.6284 86.913 77.6707C85.2484 84.7131 86.913 89.4816 96.4116 86.4205C100.444 85.1289 101.414 84.3415 105.181 85.7924C113.418 88.9685 119.888 85.7924 124.375 83.7133L97.6729 76.326Z" fill="#D4D4D4"/>
<path d="M98.481 62.7634C98.481 62.7634 87.8241 67.5586 85.7905 70.7789C83.757 73.9993 83.388 82.1563 86.4855 84.7397C89.5831 87.323 98.4982 79.2102 98.4982 79.2102L98.481 62.7634Z" fill="white"/>
<path d="M98.4803 62.7634C97.6823 64.2497 97.7938 67.2754 97.7424 70.5046C97.6737 74.0435 97.5192 77.7415 98.4803 79.2102C100.325 82.0324 123.115 83.7133 125.2 83.7133C127.285 83.7133 128.975 74.8662 126.127 68.9387C123.278 63.0111 100.145 59.6669 98.4803 62.7634Z" fill="#212C42"/>
<path d="M71.4836 100.842C73.6619 99.5433 74.0758 96.0799 72.4081 93.1063C70.7404 90.1328 67.6225 88.7751 65.4442 90.074C63.2659 91.3728 62.852 94.8363 64.5197 97.8098C66.1874 100.783 69.3052 102.141 71.4836 100.842Z" fill="#CC7466"/>
<g style="mix-blend-mode:multiply" opacity="0.5">
<path d="M70.4136 97.5857C69.7527 97.7746 69.0522 97.755 68.4022 97.5295C67.7522 97.3041 67.1826 96.8829 66.7669 96.3205C66.388 95.7138 66.2489 94.9805 66.3782 94.2713C66.5074 93.5621 66.8952 92.9309 67.4619 92.5074C67.3397 93.0259 67.3231 93.5648 67.4132 94.0902C67.5033 94.6155 67.6982 95.1159 67.9854 95.5597C68.6055 96.4458 69.4438 97.1452 70.4136 97.5857V97.5857Z" fill="#CC7466"/>
</g>
<defs>
<linearGradient id="paint0_linear_2013_2041" x1="238.889" y1="39.8547" x2="210.303" y2="28.8953" gradientUnits="userSpaceOnUse">
<stop stop-color="#EBEFF2"/>
<stop offset="1" stop-color="white"/>
</linearGradient>
<linearGradient id="paint1_linear_2013_2041" x1="34692.2" y1="20463.7" x2="34186.9" y2="21153.7" gradientUnits="userSpaceOnUse">
<stop stop-color="#FF9085"/>
<stop offset="1" stop-color="#FB6FBB"/>
</linearGradient>
</defs>
</svg>
