<svg width="28" height="28" viewBox="0 0 28 28" fill="none" xmlns="http://www.w3.org/2000/svg">
<path fill-rule="evenodd" clip-rule="evenodd" d="M14 0C17.7395 0 21.2552 1.45627 23.8995 4.10047C26.5437 6.74477 28 10.2605 28 14C28 16.7634 27.1798 19.4509 25.628 21.772C25.2923 22.2741 24.6131 22.4091 24.1108 22.0733C23.6087 21.7376 23.4738 21.0583 23.8095 20.5562C25.1199 18.5962 25.8125 16.3291 25.8125 14C25.8125 7.48656 20.5134 2.1875 14 2.1875C7.48656 2.1875 2.1875 7.48656 2.1875 14C2.1875 20.5134 7.48656 25.8125 14 25.8125C16.1604 25.8125 18.2735 25.2243 20.1106 24.1114C20.6272 23.7984 21.2998 23.9635 21.6128 24.4802C21.9258 24.9968 21.7606 25.6694 21.244 25.9824C19.065 27.3023 16.5601 28 14 28C10.2605 28 6.74477 26.5437 4.10047 23.8995C1.45627 21.2552 0 17.7395 0 14C0 10.2605 1.45627 6.74477 4.10047 4.10047C6.74477 1.45627 10.2605 0 14 0ZM9.59033 6.42724C10.5824 5.85574 11.7661 5.85771 12.7566 6.43244L20.6912 11.0366C21.6813 11.6112 22.2724 12.6388 22.2724 13.7855C22.2724 14.9322 21.6813 15.9598 20.6912 16.5344L12.7566 21.1386C12.26 21.4268 11.7144 21.5711 11.169 21.5711C10.6269 21.5711 10.0849 21.4288 9.59033 21.1438C8.59449 20.5704 8 19.5409 8 18.3898V9.18131C8 8.03022 8.59449 7.00064 9.59033 6.42724ZM11.345 18.7059L19.2796 14.1017C19.4287 14.0153 19.4599 13.882 19.4599 13.7855C19.4599 13.689 19.4287 13.5557 19.2796 13.4693L11.345 8.86511C11.2822 8.82862 11.2229 8.81498 11.1694 8.81498C11.0994 8.81498 11.0393 8.83825 10.9939 8.86441C10.9111 8.91208 10.8125 9.00574 10.8125 9.18131V18.3897C10.8125 18.5653 10.9111 18.6589 10.9939 18.7066C11.074 18.7527 11.2 18.7902 11.345 18.7059Z" fill="#D752AA"/>
</svg>
